<?xml version="1.0" encoding="UTF-8" standalone="no"?>
<svg width="53px" height="52px" viewBox="0 0 53 52" version="1.1" xmlns="http://www.w3.org/2000/svg" xmlns:xlink="http://www.w3.org/1999/xlink" xmlns:sketch="http://www.bohemiancoding.com/sketch/ns">
    <!-- Generator: Sketch 3.3.3 (12072) - http://www.bohemiancoding.com/sketch -->
    <title>Slice 1</title>
    <desc>Created with Sketch.</desc>
    <defs></defs>
    <g id="Page-1" stroke="none" stroke-width="1" fill="none" fill-rule="evenodd" sketch:type="MSPage">
        <g id="Group" sketch:type="MSLayerGroup">
            <path d="M12.137671,51.6704416 C12.137671,51.6704416 24.5356457,51.9682597 37.4032406,46.8506494 C42.665671,44.7571429 41.2044811,43.4598442 35.9984052,44.2898182 C32.9378229,44.7774026 15.6906836,49.2392727 12.4368862,50.2900779 C9.18174694,51.3402078 12.137671,51.6704416 12.137671,51.6704416" id="Fill-1" fill="#EBF3F9" sketch:type="MSShapeGroup"></path>
            <path d="M32.4225824,47.0356883 C32.2649242,47.1147013 32.0878102,47.161974 31.900633,47.1700779 C31.182114,47.2011429 30.5749621,46.6399481 30.5434305,45.9166753 C30.4112659,42.8196364 27.6747216,42.2678961 27.3634305,42.2152208 C26.6576583,42.0956883 26.1746204,41.4244156 26.288671,40.7132987 C26.4013798,40.0028571 27.0588482,39.5159481 27.7659621,39.624 C29.5471647,39.8981818 32.9639874,41.5425974 33.1457976,45.8038961 C33.1686077,46.3387532 32.8700634,46.8121558 32.4225824,47.0356883" id="Fill-2" fill="#9BB3C6" sketch:type="MSShapeGroup"></path>
            <path d="M23.8459748,48.9826494 C23.6883166,49.060987 23.5112026,49.1089351 23.3246963,49.117039 C22.6055064,49.1481039 21.9976836,48.5869091 21.9668229,47.8636364 C21.8346583,44.7665974 19.0987849,44.2148571 18.7868229,44.1615065 C18.0817216,44.041974 17.5986836,43.3713766 17.7120634,42.6602597 C17.8254431,41.9491429 18.4822406,41.4622338 19.1893545,41.570961 C20.9705571,41.8451429 24.3873798,43.4895584 24.56919,47.7508571 C24.592671,48.285039 24.2941267,48.7591169 23.8459748,48.9826494" id="Fill-3" fill="#9BB3C6" sketch:type="MSShapeGroup"></path>
            <path d="M25.6083925,11.4359481 C25.6083925,11.4359481 32.3528102,17.1221818 42.1289621,19.968 C46.1267723,21.1322597 45.9778355,19.7512208 42.6569495,17.9015065 C40.704671,16.8135584 28.8286457,11.6486753 26.4812153,10.7916883 C24.133114,9.9347013 25.6083925,11.4359481 25.6083925,11.4359481" id="Fill-4" fill="#9BB3C6" sketch:type="MSShapeGroup"></path>
            <path d="M21.0161773,22.1195844 L18.0347596,20.6764156 C17.3692406,20.354961 17.0867976,19.5438961 17.4074811,18.8746494 L19.0665824,15.4007792 C19.386595,14.7308571 20.1923292,14.4465455 20.8578482,14.7693506 L23.838595,16.2125195 C24.5034431,16.533974 24.7852153,17.345039 24.4665444,18.0142857 L22.8061014,21.4874805 C22.4867596,22.1567273 21.6810254,22.4417143 21.0161773,22.1195844" id="Fill-5" fill="#EBF3F9" sketch:type="MSShapeGroup"></path>
            <path d="M22.3874685,15.7924675 L22.3874685,15.7924675 C21.8883292,15.5507013 21.6763292,14.9422338 21.9165064,14.4397922 L22.6933925,12.8136104 C22.9335697,12.3111688 23.5380381,12.0977662 24.0371773,12.3388571 C24.5363166,12.5806234 24.7483166,13.1897662 24.5081393,13.6915325 L23.7312533,15.3183896 C23.4910761,15.8208312 22.8866077,16.0335584 22.3874685,15.7924675" id="Fill-6" fill="#9BB3C6" sketch:type="MSShapeGroup"></path>
            <path d="M24.5450381,12.3976104 L23.3897723,11.8384416 C22.7249242,11.5163117 22.4424811,10.7052468 22.7618229,10.036 L23.2488862,9.01693506 C23.5688988,8.34768831 24.374633,8.06337662 25.0394811,8.38550649 L26.1947469,8.94467532 C26.859595,9.26680519 27.1420381,10.0778701 26.8226963,10.7471169 L26.335633,11.7661818 C26.0162912,12.4354286 25.2098862,12.7197403 24.5450381,12.3976104" id="Fill-7" fill="#EBF3F9" sketch:type="MSShapeGroup"></path>
            <path d="M24.3162659,10.7052468 C24.3162659,10.7052468 15.7134938,8.85418182 7.4683039,2.84987013 C4.0957596,0.39438961 5.26913934,-0.336987013 8.76110137,1.15885714 C10.8140128,2.03812987 22.1680887,8.28150649 24.2840634,9.61662338 C26.4000381,10.9510649 24.3162659,10.7052468 24.3162659,10.7052468" id="Fill-8" fill="#9BB3C6" sketch:type="MSShapeGroup"></path>
            <path d="M23.9606963,21.3733506 L23.0503039,19.6364156 L44.2348735,31.878026 C44.2348735,31.878026 45.6605064,32.7363636 46.9640381,33.6271169 C48.0502026,34.3672727 49.149114,35.6233766 46.5668735,37.078026 C45.3968482,37.7371429 43.9725571,38.1916364 43.1466963,38.5225455 C41.3916583,39.2248831 22.5565317,46.1253506 17.113633,45.3824935 C11.6707343,44.6396364 23.9606963,21.3733506 23.9606963,21.3733506" id="Fill-9" fill="#EBF3F9" sketch:type="MSShapeGroup"></path>
            <path d="M28.6079242,26.3903377 C31.4477849,33.5724156 28.0873166,41.6621299 21.1027216,44.4606753 C14.1194685,47.2585455 6.15537985,43.704987 3.31686086,36.5229091 C0.476329216,29.3408312 3.83679757,21.2511169 10.8213925,18.4539221 C17.8053166,15.6560519 25.7687343,19.2096104 28.6079242,26.3903377" id="Fill-10" fill="#C4D9ED" sketch:type="MSShapeGroup"></path>
            <path d="M15.0580381,30.5847792 C14.3750761,36.3716364 10.5107723,40.6680519 6.42708871,40.1797922 C2.34340517,39.6915325 -0.413936606,34.6036364 0.268354533,28.8167792 C0.951316558,23.0292468 4.81562036,18.7335065 8.8993039,19.2217662 C12.9836583,19.710026 15.7410001,24.7972468 15.0580381,30.5847792" id="Fill-11" fill="#9BB3C6" sketch:type="MSShapeGroup"></path>
            <path d="M12.514709,30.2802078 C11.9987976,34.6495584 9.04018998,37.8870649 5.90581023,37.5122597 C2.77143048,37.1374545 0.648746938,33.2921558 1.16465833,28.9234805 C1.67922795,24.5548052 4.63850643,21.3172987 7.77221529,21.6914286 C10.906595,22.0662338 13.0299495,25.9115325 12.514709,30.2802078" id="Fill-12" fill="#FFFFFF" sketch:type="MSShapeGroup"></path>
            <path d="M51.3227849,23.868 C49.9226457,22.8063896 47.7093925,22.231013 44.0168355,26.341039 C42.8998102,27.5836364 41.6955697,29.0794805 40.9750381,29.9938701 L44.2342026,31.878026 C44.2342026,31.878026 45.6605064,32.7363636 46.9640381,33.6271169 C47.7550128,34.1673766 48.5526963,34.9811429 47.9274305,35.9455065 C54.154595,29.0504416 52.7242659,24.9296104 51.3227849,23.868 L51.3227849,23.868 Z M48.831114,29.9486234 C47.8227723,30.9562078 46.4306836,31.1891948 45.7208862,30.4692987 C45.0117596,29.7494026 45.2546204,28.3494545 46.2629621,27.3425455 C47.2719748,26.3356364 48.6647343,26.1026494 49.3738609,26.8218701 C50.0829874,27.5417662 49.8401267,28.9417143 48.831114,29.9486234 L48.831114,29.9486234 Z" id="Fill-13" fill="#9BB3C6" sketch:type="MSShapeGroup"></path>
            <path d="M6.53241782,29.6008312 C6.36872162,31.2574026 5.43887352,32.5216104 4.45468365,32.4236883 C3.47049377,32.3250909 2.80497479,30.9021818 2.96732922,29.2456104 C3.13102542,27.5883636 4.06087352,26.3248312 5.04506339,26.4227532 C6.02925327,26.5206753 6.69477225,27.9435844 6.53241782,29.6008312" id="Fill-14" fill="#9BB3C6" sketch:type="MSShapeGroup"></path>
            <path d="M22.2915317,22.2708571 C22.1929115,22.2708571 22.107709,22.2911169 22.0392786,22.3323117 C21.3428988,22.7516883 22.9121014,24.3623377 24.2397849,26.5929351 C25.4460381,28.6236364 26.0391014,30.4686234 26.6603419,30.4686234 C26.7213925,30.4686234 26.7837849,30.4503896 26.8461773,30.4125714 C27.5438988,29.9925195 27.7847469,28.1806234 26.4570634,25.9486753 C25.2608735,23.9375584 23.1958862,22.2708571 22.2915317,22.2708571" id="Fill-15" fill="#DAE7F4" sketch:type="MSShapeGroup"></path>
            <path d="M17.89119,19.366961 C17.4537723,19.366961 17.1720001,19.4945974 17.0807596,19.7248831 C16.8935824,20.1928831 17.3920507,20.3644156 18.8726963,20.9627532 C19.9239748,21.3868571 20.6109621,21.733974 20.9893419,21.733974 C21.1449874,21.733974 21.247633,21.6752208 21.3026457,21.5381299 C21.4904938,21.0701299 21.2100634,20.408987 19.7274052,19.8106494 C18.9719874,19.5054026 18.3467216,19.366961 17.89119,19.366961" id="Fill-16" fill="#DAE7F4" sketch:type="MSShapeGroup"></path>
            <path d="M15.635671,38.9520519 C15.3538988,38.9344935 15.1096963,39.1519481 15.0909115,39.4369351 C15.0848735,39.5422857 14.8889748,42.0254545 11.7753925,43.0978701 C10.618114,43.4882078 9.60105074,43.4341818 8.77451909,43.209974 C9.46821529,43.6590649 10.1988102,44.0426494 10.9562406,44.3593766 C11.2936963,44.3094026 11.6425571,44.2310649 12.0041647,44.1128831 L12.108152,44.0777662 C15.9000001,42.7716883 16.1113292,39.6287273 16.1193798,39.4956883 C16.1341393,39.2107013 15.9187849,38.9689351 15.635671,38.9520519" id="Fill-17" fill="#9BB3C6" sketch:type="MSShapeGroup"></path>
            <path d="M16.2414811,39.4767792 C16.1046204,39.5213506 15.9637343,39.544987 15.8194938,39.5476883 C15.0358988,39.5632208 14.4602786,38.9324675 14.4361267,38.9054545 C14.293228,38.7467532 14.3053039,38.5009351 14.463633,38.3570909 C14.6206204,38.2166234 14.8634811,38.2254026 15.0077216,38.3834286 C15.0197976,38.3976104 15.3840887,38.7818701 15.8080887,38.7710649 C16.0489368,38.7643117 16.2830761,38.6245195 16.5078229,38.3543896 C16.6440128,38.1896104 16.8875444,38.1673247 17.0512406,38.3057662 C17.2149368,38.4428571 17.2364052,38.688 17.1002153,38.8527792 C16.8399115,39.1668052 16.5521014,39.3754805 16.2414811,39.4767792" id="Fill-18" fill="#9BB3C6" sketch:type="MSShapeGroup"></path>
        </g>
    </g>
</svg>