<svg width="1192" height="213" viewBox="0 0 1192 213" xmlns="http://www.w3.org/2000/svg" xmlns:sketch="http://www.bohemiancoding.com/sketch/ns"><title>Slice 1</title><desc>Created with Sketch.</desc><g sketch:type="MSLayerGroup" fill="none"><path d="M1083.269 141.598v-2.37 20.089c0 .669-.065 1.333-.099 1.993l.099-.048v-19.664" fill="#fff" sketch:type="MSShapeGroup"/><path d="M1052.782 107.682h.020999999999999998-.021" fill="#fff" sketch:type="MSShapeGroup"/><path d="M1083.269 139.228c-.937-17.588-14.313-31.539-30.444-31.546-16.851.007-30.466 15.226-30.466 33.916v19.664c7.496 2.685 18.412 4.37 30.555 4.37 12.07 0 22.87-1.666 30.402-4.322.035-.66-.047-1.324-.047-1.993v-20.089" fill="#EBF3F9" sketch:type="MSShapeGroup"/><path d="M1053.409 167.215c-12.625 0-24.491-1.646-31.987-4.309v6.232c7.496 2.831 19.054 4.608 31.862 4.608 12.729 0 24.042-1.756 31.985-4.558.038-.696-.126-1.396-.126-2.102v2.052l-.104.05c.036-.696.104-1.396.104-2.102v-4.121c-8.434 2.628-19.203 4.25-31.734 4.25" fill="#E4EEF2" sketch:type="MSShapeGroup"/><path d="M1085.143 169.138v-2.052c0 .706-.068 1.406-.104 2.102l.104-.05" fill="#fff" sketch:type="MSShapeGroup"/><path d="M1052.8 103.084h-.024l.012.001.012-.001" fill="#fff" sketch:type="MSShapeGroup"/><path d="M1052.801 112.63h-.022.012.01" fill="#fff" sketch:type="MSShapeGroup"/><path d="M1087.018 162.379v-2.153c0 .741-.071 1.476-.11 2.206l.11-.053" fill="#fff" sketch:type="MSShapeGroup"/><path d="M1052.782 89.267h.021c-16.856 0-30.444 12.718-30.444 29.574v17.73c7.496 2.421 18.312 3.94 30.455 3.94 12.143 0 22.958-1.519 30.455-3.94v-17.73c0-16.856-13.631-29.574-30.487-29.574" fill="#C4D9ED" sketch:type="MSShapeGroup"/><path d="M1016.985 106.012c-.001 0-4.019 12.393-1.34 21.102 2.68 6.531 16.13 5.28 16.606.504.476-4.775.979-12.73 2.988-16.917 2.01-4.186 4.187-9.88 8.039-14.067 3.851-4.187-11.948-8.965-15.072-6.724-3.126 2.24-6.699 4.379-11.221 16.102" fill="#EBF3F9" sketch:type="MSShapeGroup"/><path d="M1018.845 106.453s-2.264 6.982-.755 11.889c1.51 3.68 9.088 2.975 9.356.285.269-2.691.552-7.173 1.684-9.532 1.133-2.359 2.359-5.567 4.529-7.926 2.171-2.359-6.731-5.051-8.492-3.789-1.761 1.262-3.774 2.468-6.322 9.073" fill="#9CB4C7" sketch:type="MSShapeGroup"/><path d="M1015.855 93.208c-1.387 4.147-4.045 10.078-8.667 13.996 1.155.783 2.545 1.692 4.201 2.726 7.129-3.138 8.509-13.945 8.509-13.945l-4.043-2.777" fill="#9CB4C7" sketch:type="MSShapeGroup"/><path d="M1004.05 79.56l-15.155 20.536c-.001 0 3.8 3.391 14.057 9.793 1.57-.691 2.974-1.616 4.236-2.685 4.622-3.918 7.28-9.849 8.667-13.996.937-2.796 1.297-4.78 1.297-4.78l-13.102-8.868" fill="#C4D9ED" sketch:type="MSShapeGroup"/><path d="M999.463 72.627c-3.306 2.307-6.756 6.438-10.002 11.412-3.246 4.973-5.639 9.795-6.42 13.749l-2.891 4.43 3.678 2.4c3.081 2.011 10.502-3.904 16.68-13.369 6.178-9.466 8.604-18.64 5.524-20.651l-3.678-2.4-2.891 4.429" fill="#9CB4C7" sketch:type="MSShapeGroup"/><path d="M1002.329 67.998c3.081 2.011.571 11.314-5.608 20.779-6.178 9.466-13.683 15.509-16.763 13.499-3.081-2.011-.57-11.314 5.607-20.78 6.178-9.465 13.684-15.508 16.764-13.498" fill="#C4D9ED" sketch:type="MSShapeGroup"/><path d="M998.933 72.213c1.781 1.163-.465 7.759-5.016 14.734-4.553 6.974-9.687 11.686-11.469 10.523-1.781-1.163.465-7.759 5.017-14.734 4.552-6.974 9.687-11.686 11.468-10.523" fill="#fff" sketch:type="MSShapeGroup"/><path d="M1013.543 105.01l12.862 7.976 3.332-4.964-12.447-8.452-3.747 5.44" fill="#9CB4C7" sketch:type="MSShapeGroup"/><path d="M991.566 84.966c-1.807 2.95-4.011 4.89-4.924 4.331-.912-.559-.187-3.404 1.62-6.355 1.808-2.951 4.012-4.89 4.925-4.331.912.558.187 3.404-1.621 6.355" fill="#9CB4C7" sketch:type="MSShapeGroup"/><path d="M1174.469 34.879c-.873-.476-1.844.29-2.395 1.146l-2.963 4.17c1.075.381 2.102.907 3.035 1.613l2.907-4.51c.551-.855.289-1.944-.584-2.419" fill="#C4D9ED" sketch:type="MSShapeGroup"/><path d="M1177.737 42.203c-.894-.179-1.626.534-2.224 1.232l1.478-2.294c.552-.855.289-1.944-.583-2.419-.873-.476-2.038-.165-2.59.69l-1.588 2.463c1.85 1.43 3.317 3.581 4.038 6.726.366-.544.555-.882.555-.882.558-.852 2.692-5.161.914-5.516" fill="#C4D9ED" sketch:type="MSShapeGroup"/><path d="M1178.505 58.375c-1.865-.736-.048-4.529-.192-7.719-.443-9.83-8.226-11.991-14.141-11.986 2.278-1.253 5.64-3.368 3.488-3.899-3.111-.768-6.685 4.031-6.685 4.031l.027.075-.161.021-.093.016c1.804-1.845 4.056-4.505 1.96-4.418-3.201.133-5.29 5.74-5.29 5.741-3.428 2.283-5.113 6.53-5.113 6.53-6.403 24.275 19.739 20.273 22.94 19.34 2.34-.683 15.073-3.068 3.26-7.732" fill="#EBF3F9" sketch:type="MSShapeGroup"/><path d="M1152.971 46.161h-10.675l9.698 6.752s3.286-1.129.977-6.752" fill="#9CB4C7" sketch:type="MSShapeGroup"/><path d="M1165.712 76.06c-.382 0-.817-.081-1.306-.244-1.515-.505-2.643-2.316-3.353-5.382-.506-2.186-.611-4.205-.615-4.29-.014-.294.212-.544.507-.559.294-.01.545.212.559.506.108 2.159.9 7.933 3.24 8.713.726.242 1.251.255 1.478.036.322-.308.211-1.154.108-1.516-.081-.283.082-.579.365-.66.282-.081.577.08.66.362.051.177.477 1.746-.391 2.582-.313.301-.732.452-1.252.452" fill="#9CB4C7" sketch:type="MSShapeGroup"/><path d="M1164.126 75.219c-.409 0-.859-.214-1.34-.641-.22-.195-.24-.532-.045-.753.196-.22.533-.241.754-.045.407.362.617.387.664.365.227-.105.429-.96.416-1.76-.005-.295.23-.538.525-.543.297-.001.537.229.542.524.007.376-.012 2.276-1.037 2.748-.153.07-.313.105-.479.105" fill="#9CB4C7" sketch:type="MSShapeGroup"/><path d="M1174.782 76.06c-.382 0-.817-.081-1.306-.244-1.516-.505-2.643-2.316-3.354-5.382-.505-2.186-.61-4.205-.614-4.29-.015-.294.212-.544.506-.559.295-.01.545.212.56.506.108 2.159.9 7.933 3.239 8.713.726.242 1.251.255 1.479.036.322-.308.211-1.154.108-1.516-.081-.283.082-.579.364-.66.282-.081.578.08.66.362.051.177.477 1.746-.39 2.582-.314.301-.733.452-1.252.452" fill="#9CB4C7" sketch:type="MSShapeGroup"/><path d="M1173.196 75.219c-.411 0-.859-.214-1.34-.641-.221-.195-.241-.532-.045-.753.195-.22.532-.241.753-.045.407.362.617.387.664.365.228-.105.43-.96.417-1.76-.005-.295.23-.538.525-.543.296-.001.537.229.542.524.007.376-.012 2.276-1.037 2.748-.153.07-.313.105-.479.105" fill="#9CB4C7" sketch:type="MSShapeGroup"/><path d="M1157.431 48.048s2.309-6.483 5.444-5.053c3.326 1.516.578 6.742.578 6.742s.848-5.253-1.147-5.807c-1.995-.554-4.875 4.118-4.875 4.118" fill="#9CB4C7" sketch:type="MSShapeGroup"/><path d="M1175.779 64.506l.084-.024c-.515-.621-1.309-1.005-2.135-.932-1.508.132-7.599-.097-11.614-1.459-4.015-1.362-5.162-6.739-7.424-6.739-1.796 0-1.643 2.148-1.503 3.036 4.7 9.271 20.176 6.823 22.592 6.118" fill="#fff" sketch:type="MSShapeGroup"/><path d="M1188.498 50.565l2.261-1.529c.843-.57 1.028-1.675.412-2.455-.616-.78-1.81-.951-2.652-.381l-2.879 1.947-.061-.088 4.905-3.319c.843-.57 1.029-1.674.413-2.454-.616-.78-1.809-.456-2.652.114l-7.755 4.749c-2.445 1.367-5.478 2.594-9.1 3.219l-.559.091c-1.914-.026-4.849 1.737-3.182 4.268 1.667 2.53 4.88 3.804 5.929 4.022 7.593 1.58 14.443-3.73 14.443-3.73.847-.565 4.502-3.689 3.006-4.714-.752-.515-1.705-.147-2.529.26" fill="#C4D9ED" sketch:type="MSShapeGroup"/><path d="M76.273 45l-2.187-.08c-.771-3.943-2.408-7.09-4.443-9.594l2.196-2.635c.839-1.005.702-2.514-.304-3.352l-7.139-5.951c-1.005-.839-2.514-.702-3.352.304l-2.994 3.591c-2.029-.787-3.634-1.2-4.315-1.401-.89-.261-3.845-.467-7.546.065l-1.084-2.32c-.554-1.187-1.978-1.704-3.164-1.15l-8.421 3.933c-1.186.554-1.703 1.978-1.149 3.164l.764 1.637c-3.422 2.684-6.291 6.584-7.619 12.23-.186.79-.326 1.555-.445 2.308l-4.022.585c-1.296.189-2.201 1.403-2.013 2.699l1.34 9.197c.189 1.295 1.403 2.201 2.698 2.012l3.674-.535c3.257 7.147 9.272 10.385 9.272 10.385 2.297 1.04 4.482 1.869 6.564 2.514l-.174 2.632c-.086 1.306.912 2.446 2.218 2.532l9.275.611c1.306.086 2.445-.912 2.531-2.218l.134-2.036c9.059-1.251 14.565-7.48 16.824-15.168l2.372.086c1.308.047 2.417-.984 2.465-2.293l.336-9.288c.048-1.308-.984-2.417-2.292-2.464" fill="#EBF3F9" sketch:type="MSShapeGroup"/><path d="M38.972 50.827c.533 2.951-.03 5.522-1.257 5.744-1.228.222-2.654-1.991-3.187-4.941-.533-2.951.031-5.522 1.258-5.744 1.227-.221 2.654 1.991 3.186 4.941" fill="#A2B9CA" sketch:type="MSShapeGroup"/><path d="M66.938 27.362c2.297 1.927 3.84 3.87 3.446 4.34-.394.469-2.576-.713-4.872-2.64-2.297-1.927-3.839-3.87-3.445-4.34.394-.469 2.575.713 4.871 2.64" fill="#A2B9CA" sketch:type="MSShapeGroup"/><path d="M63.608 61.175c-1.373 2.666-3.545 4.282-4.852 3.609-1.307-.672-1.255-3.379.117-6.045 1.372-2.666 3.543-4.282 4.851-3.609 1.307.673 1.255 3.379-.116 6.045" fill="#A2B9CA" sketch:type="MSShapeGroup"/><path d="M72.653 58.795c-4.197 7.753-11.21 12.836-19.157 12.836-12.847 0-23.262-13.277-23.262-29.656 0-3.224.409-6.325 1.155-9.231-2.636 2.578-4.778 6.043-5.873 10.697-.186.79-.326 1.555-.445 2.308l-4.022.585c-1.296.189-2.201 1.403-2.013 2.699l1.34 9.197c.189 1.295 1.403 2.201 2.698 2.012l3.674-.535c3.257 7.147 9.272 10.385 9.272 10.385 2.297 1.04 4.482 1.869 6.564 2.514l-.174 2.632c-.086 1.306.912 2.446 2.218 2.532l9.275.611c1.306.086 2.445-.912 2.531-2.218l.134-2.036c8.962-1.238 14.441-7.349 16.744-14.924l-.659-.408" fill="#C4D9ED" sketch:type="MSShapeGroup"/><path d="M23.68 53.01c.533 2.95.447 5.436-.193 5.551-.638.116-1.588-2.183-2.121-5.133-.532-2.951-.447-5.436.193-5.551.639-.116 1.588 2.182 2.121 5.133" fill="#A2B9CA" sketch:type="MSShapeGroup"/><path d="M986.318 15.402c-4.137-11.608-16.901-17.665-28.509-13.528-11.608 4.137-17.665 16.901-13.528 28.509 4.137 11.608 16.901 17.665 28.509 13.528 11.608-4.137 17.665-16.901 13.528-28.509" fill="#C4D9ED" sketch:type="MSShapeGroup"/><path d="M983.455 10.041c.627.864 1.196 1.78 1.699 2.745 9.625-2.341 16.283-2.896 16.933-1.068 1.054 2.958-14.232 10.425-33.876 17.426-19.645 7.001-36.208 10.885-37.262 7.927-.622-1.745 4.376-5.273 12.61-9.309-.227-1.06-.373-2.124-.441-3.185-11.687 5.806-18.928 11.424-17.828 14.511 1.651 4.632 22.095 3.627 44.865-4.488 22.77-8.115 39.242-20.267 37.591-24.899-1.137-3.191-10.891-2.838-24.291.34" fill="#EBF3F9" sketch:type="MSShapeGroup"/><path d="M122.219 112.108c-.144 1.336-1.058 1.671-2.031.744l-3.907-3.721c-.973-.928-2.846-1.46-4.162-1.184l-5.279 1.108c-1.316.276-1.917-.49-1.336-1.702l2.332-4.865c.581-1.212.509-3.157-.16-4.323l-2.686-4.679c-.669-1.166-.126-1.974 1.206-1.796l5.347.714c1.333.178 3.161-.492 4.063-1.488l3.62-4.001c.902-.996 1.839-.73 2.081.592l.973 5.307c.242 1.322 1.445 2.854 2.671 3.404l4.923 2.206c1.226.55 1.263 1.523.08 2.162l-4.746 2.565c-1.183.64-2.268 2.256-2.412 3.592l-.577 5.365" fill="#C4D9ED" sketch:type="MSShapeGroup"/><path d="M145.322 94.373c-.073.684-.542.856-1.04.381l-2-1.906c-.498-.474-1.457-.747-2.131-.606l-2.703.568c-.674.141-.982-.251-.685-.872l1.195-2.491c.297-.62.26-1.617-.082-2.214l-1.376-2.396c-.342-.597-.064-1.01.618-.919l2.738.366c.682.091 1.618-.252 2.081-.763l1.853-2.048c.462-.51.941-.374 1.065.303l.499 2.717c.124.677.739 1.462 1.368 1.743l2.52 1.13c.629.282.646.78.042 1.107l-2.431 1.314c-.605.327-1.161 1.155-1.235 1.839l-.296 2.747" fill="#D3E3F0" sketch:type="MSShapeGroup"/><path d="M155.892 118.03c-.074.684-.542.855-1.04.381l-2.001-1.906c-.498-.475-1.457-.747-2.131-.606l-2.703.568c-.674.141-.981-.251-.684-.872l1.194-2.491c.298-.621.26-1.617-.082-2.214l-1.375-2.396c-.342-.597-.065-1.011.618-.919l2.738.365c.682.092 1.618-.251 2.08-.762l1.853-2.048c.462-.51.942-.374 1.066.303l.498 2.717c.124.677.739 1.462 1.368 1.743l2.52 1.13c.629.282.647.78.042 1.107l-2.431 1.314c-.605.327-1.161 1.155-1.234 1.839l-.296 2.747" fill="#A2B9CA" sketch:type="MSShapeGroup"/><path d="M775.483 99.796c.613 1.196.033 1.978-1.29 1.737l-5.308-.968c-1.322-.241-3.18.341-4.128 1.293l-3.806 3.824c-.949.953-1.871.642-2.051-.69l-.719-5.347c-.179-1.332-1.308-2.919-2.506-3.527l-4.813-2.438c-1.199-.608-1.189-1.581.023-2.163l4.862-2.337c1.212-.582 2.373-2.145 2.58-3.473l.832-5.331c.207-1.328 1.136-1.619 2.065-.647l3.724 3.903c.929.972 2.774 1.593 4.101 1.38l5.326-.856c1.328-.213 1.891.58 1.254 1.763l-2.561 4.749c-.638 1.183-.658 3.13-.046 4.326l2.461 4.802" fill="#C4D9ED" sketch:type="MSShapeGroup"/><path d="M785.068 72.293c.314.612.017 1.013-.66.889l-2.718-.496c-.677-.123-1.629.175-2.114.663l-1.949 1.958c-.485.487-.958.329-1.05-.354l-.369-2.738c-.092-.682-.669-1.494-1.283-1.805l-2.464-1.249c-.614-.311-.608-.81.011-1.108l2.491-1.196c.62-.298 1.215-1.099 1.321-1.779l.425-2.729c.107-.68.583-.829 1.057-.331l1.908 1.998c.476.498 1.42.816 2.1.707l2.727-.439c.68-.109.969.297.642.903l-1.311 2.432c-.327.606-.337 1.603-.023 2.215l1.259 2.459" fill="#D3E3F0" sketch:type="MSShapeGroup"/><path d="M806.884 86.272c.314.612.017 1.013-.66.889l-2.718-.495c-.677-.124-1.628.174-2.114.662l-1.949 1.958c-.485.488-.958.329-1.05-.354l-.369-2.737c-.091-.682-.668-1.495-1.283-1.806l-2.464-1.249c-.614-.311-.609-.809.011-1.107l2.491-1.197c.62-.298 1.214-1.098 1.32-1.779l.427-2.729c.106-.68.581-.829 1.057-.331l1.907 1.998c.475.498 1.42.816 2.1.707l2.728-.438c.679-.11.968.297.641.902l-1.312 2.432c-.326.606-.336 1.603-.023 2.215l1.26 2.459" fill="#A2B9CA" sketch:type="MSShapeGroup"/><path d="M937.589 175.214c8.638-24.556 24.452-57.244 47.76-58.769 37.53-2.455 59.87 95.58 59.87 95.58h-116.568s3.667-21.826 8.938-36.811" fill="#DBE9FB" sketch:type="MSShapeGroup"/><path d="M946.106 154.435c5.284-3.448 16.289-11.08 24.059-19.569-.136 13.665-.502 17.814-.502 17.814l15.846-19.22 11.37 19.997 1.613-19.458 27.659 22.38-.03-.315c-10.084-21.493-23.89-40.724-40.772-39.619-17.05 1.115-30.089 18.905-39.243 37.99" fill="#F9FBFF" sketch:type="MSShapeGroup"/><path d="M815.759 162.736c11.347-32.255 32.118-75.192 62.733-77.194 49.298-3.225 78.641 125.546 78.641 125.546h-153.115s4.818-28.669 11.741-48.352" fill="#DBE9FB" sketch:type="MSShapeGroup"/><path d="M826.947 135.442c6.94-4.528 21.395-14.553 31.601-25.703-.179 17.948-.658 23.399-.658 23.399l20.813-25.247 14.934 26.266 2.12-25.557 36.329 29.395-.038-.413c-13.245-28.231-31.38-53.491-53.556-52.04-22.394 1.465-39.52 24.832-51.545 49.9" fill="#F9FBFF" sketch:type="MSShapeGroup"/><path d="M301.047 189.681s-15.083-5.209 49.424-13.338c61.458-7.745 87.403-14.528 170.754-15.059 23.613-.151 88.069 6.884 143.636 18.931 26.736-30.549 79.157-12.477 79.157-12.477s16.775 7.744 23.067 14.198c4.194-12.047 52.946-44.747 126.861-15.919 73.915 28.827 81.74 39.154 84.118 43.457 2.378 4.302-609.644 2.581-609.644 2.581l-78.52-6.024 11.147-16.35" fill="#DBE9FB" sketch:type="MSShapeGroup"/><path d="M521.225 161.284c-7.681.048-14.87.151-21.649.302-40.391 11.42-64.599 40.707-71.832 50.605 5.477.011 11.265.022 17.336.033 4.797-4.852 12.531-11.971 24.869-21.937 21.683-17.516 60.085-25.166 76.518-27.749-10.522-.862-19.215-1.293-25.242-1.254" fill="#F7FDFF" sketch:type="MSShapeGroup"/><path d="M636.019 175.315h-.125c-.287 0-.522-.235-.522-.522v-11.805c0-.287.235-.522.522-.522h.125c.287 0 .522.235.522.522v11.805c0 .287-.235.522-.522.522" fill="#DBE9FB" sketch:type="MSShapeGroup"/><path d="M636.053 150.211c.114-1.816-.825-3.699-2.427-4.56-1.601-.861-3.793-.549-4.981.829-1.158 1.344-1.216 3.287-1.214 5.062l.004 5.996c-1.017-.909-2.68-.987-3.776-.176-1.055.779-1.487 2.312-.964 3.515.522 1.203 1.964 1.936 3.236 1.619-.609.103-1.285.247-1.631.759-.459.678-.04 1.665.655 2.097.695.433 1.558.463 2.376.481l13.663.289c1.795.038 3.639.069 5.327-.545 1.687-.615 3.208-2.027 3.407-3.812.2-1.784-1.394-3.707-3.164-3.406 1.459-3.458.067-7.874-3.11-9.872-1.242-.781-2.75-1.212-4.194-.958-1.445.255-2.788 1.276-3.207 2.682" fill="#DBE9FB" sketch:type="MSShapeGroup"/><path d="M593.673 168.577h-.16c-.369 0-.671-.301-.671-.67v-15.167c0-.369.302-.67.671-.67h.16c.368 0 .67.301.67.67v15.167c0 .369-.302.67-.67.67" fill="#DBE9FB" sketch:type="MSShapeGroup"/><path d="M593.718 136.325c.146-2.332-1.061-4.751-3.119-5.857-2.058-1.107-4.874-.706-6.399 1.064-1.488 1.727-1.562 4.223-1.561 6.503.003 2.568.005 5.136.007 7.703-1.306-1.168-3.443-1.267-4.852-.226-1.356 1.001-1.91 2.971-1.239 4.516.671 1.546 2.523 2.487 4.158 2.08-.782.132-1.652.318-2.096.975-.589.871-.05 2.139.842 2.695.893.556 2.002.595 3.053.617l17.553.372c2.306.049 4.675.088 6.843-.701 2.168-.789 4.122-2.604 4.378-4.896.256-2.293-1.791-4.764-4.065-4.376 1.873-4.443.085-10.117-3.996-12.683-1.595-1.003-3.532-1.558-5.388-1.23-1.856.327-3.581 1.638-4.119 3.444" fill="#DBE9FB" sketch:type="MSShapeGroup"/><path d="M407.536 134.56c.134.064.274.118.419.163.682.212 16.857 5.038 30.657-7.83 1.254-1.169 1.323-3.133.154-4.387-1.17-1.255-3.134-1.323-4.388-.154-11.194 10.438-24.449 6.483-24.581 6.442-1.638-.508-3.377.407-3.885 2.044-.464 1.492.254 3.069 1.624 3.722" fill="#EBF3F9" sketch:type="MSShapeGroup"/><path d="M445.273 123.159c.392.814 1.378 1.159 2.191.767l5.07-2.444c.813-.391 1.158-1.378.767-2.191-.392-.813-1.379-1.158-2.192-.766l-5.07 2.443c-.814.392-1.158 1.378-.766 2.191" fill="#9CB4C7" sketch:type="MSShapeGroup"/><path d="M437.272 116.386c-.804-.411-1.126-1.405-.715-2.209l2.56-5.012c.411-.804 1.404-1.126 2.209-.715.803.41 1.125 1.404.715 2.208l-2.561 5.013c-.41.803-1.404 1.125-2.208.715" fill="#9CB4C7" sketch:type="MSShapeGroup"/><path d="M442.315 118.994c-.663-.614-.703-1.657-.09-2.32l3.823-4.13c.614-.663 1.657-.703 2.32-.09.662.613.703 1.657.089 2.32l-3.823 4.13c-.613.663-1.657.703-2.319.09" fill="#9CB4C7" sketch:type="MSShapeGroup"/><path d="M437.447 112.367l-2.066 2.082c-3.052 3.076-3.017 8.116.059 11.169l.021.02c3.076 3.053 8.053 2.987 11.106-.089l2.066-2.082-11.186-11.1" fill="#C4D9ED" sketch:type="MSShapeGroup"/><path d="M418.369 120.307l2.187-7.504c3.199-10.976-2.595-22.873-13.571-26.072l-.074-.022c-10.976-3.198-22.74 3.581-25.94 14.556l-2.186 7.505 39.584 11.537" fill="#C4D9ED" sketch:type="MSShapeGroup"/><path d="M383.345 100.338l35.971 10.485c.61-2.751.663-5.664.006-7.807l-31.743-9.252c-1.729 1.448-3.267 3.928-4.234 6.574" fill="#fff" sketch:type="MSShapeGroup"/><path d="M386.382 91.976c-.296-.136-.5-.659-.822-.753l-3.127-.911c-3.563-1.039-7.406 1.296-8.444 4.859-1.039 3.563.948 7.597 4.511 8.636l1.596.465.875-3.007c1.015-3.48 2.984-6.895 5.411-9.289" fill="#9CB4C7" sketch:type="MSShapeGroup"/><path d="M421.029 102.074c.322.044.82-.274 1.141-.18l3.127.911c3.563 1.038 5.549 5.073 4.512 8.635-1.039 3.563-4.882 5.898-8.445 4.86l-1.684-.491.876-3.006c1.015-3.481 1.233-7.406.473-10.729" fill="#9CB4C7" sketch:type="MSShapeGroup"/><path d="M404.613 119.123l-12.621-3.678.781-2.681 12.621 3.679-.781 2.68" fill="#9CB4C7" sketch:type="MSShapeGroup"/><path d="M380.975 126.818c-.147-.018-.294-.047-.441-.087-.689-.188-16.925-4.808-21.65-23.075-.429-1.66.569-3.354 2.228-3.783 1.66-.43 3.354.568 3.784 2.228 3.832 14.818 17.136 18.603 17.27 18.64 1.654.451 2.63 2.157 2.179 3.811-.411 1.507-1.864 2.451-3.37 2.266" fill="#EBF3F9" sketch:type="MSShapeGroup"/><path d="M413.09 120.721l-29.218-8.516-15.976 31.458 41.171 12 4.023-34.942" fill="#C4D9ED" sketch:type="MSShapeGroup"/><path d="M376.879 139.449l26.876 7.833.789-8.555-23.569-6.869-4.096 7.591" fill="#fff" sketch:type="MSShapeGroup"/><path d="M406.078 125.51l-19.072-5.559-3.967 7.628 22.134 6.452.905-8.521" fill="#fff" sketch:type="MSShapeGroup"/><path d="M355.273 96.928c-.768.475-1.785.236-2.26-.531l-2.964-4.785c-.475-.767-.236-1.784.532-2.26.767-.475 1.784-.236 2.259.532l2.964 4.784c.475.768.236 1.785-.531 2.26" fill="#9CB4C7" sketch:type="MSShapeGroup"/><path d="M365.66 95.514c.899.085 1.704-.58 1.79-1.479l.533-5.603c.086-.899-.579-1.704-1.478-1.789-.899-.086-1.704.579-1.79 1.478l-.533 5.603c-.086.899.579 1.704 1.478 1.79" fill="#9CB4C7" sketch:type="MSShapeGroup"/><path d="M360.006 95.004c.888-.161 1.483-1.02 1.322-1.908l-1.006-5.538c-.161-.888-1.019-1.483-1.908-1.322-.888.161-1.483 1.02-1.322 1.908l1.006 5.538c.161.888 1.02 1.483 1.908 1.322" fill="#9CB4C7" sketch:type="MSShapeGroup"/><path d="M367.672 92.03l.624 2.866c.921 4.235-1.816 8.466-6.051 9.388l-.029.006c-4.234.922-8.397-1.808-9.319-6.042l-.623-2.866 15.398-3.352" fill="#C4D9ED" sketch:type="MSShapeGroup"/><path d="M378.109 175.272l-12.583-3.668 7.87-27.004 12.584 3.668-7.871 27.004" fill="#E4EEF2" sketch:type="MSShapeGroup"/><path d="M394.227 179.969l-12.583-3.667 7.87-27.004 12.584 3.668-7.871 27.003" fill="#EBF3F9" sketch:type="MSShapeGroup"/><path d="M379.847 175.453l.771-2.644c1.182-4.057-1.751-8.379-5.807-9.561l-.028-.008c-4.057-1.182-7.378 1.317-8.56 5.373l-.77 2.644 14.394 4.196" fill="#B2DFED" sketch:type="MSShapeGroup"/><path d="M395.141 179.91l.77-2.644c1.183-4.056-.961-8.148-5.018-9.331l-.027-.008c-4.056-1.182-9.066.825-10.248 4.882l-.771 2.644 15.294 4.457" fill="#B2DFED" sketch:type="MSShapeGroup"/><path d="M407.209 110.018c-.053-.24-.29-.394-.53-.338-.395.088-.706.049-.929-.114-.4-.292-.46-.909-.46-.915-.021-.244-.238-.428-.479-.406-.245.019-.428.234-.408.478.002.028.044.46.276.906l-.048.037c-.079.09-1.992 2.206-5.585.992-2.093-.709-3.104-2.201-3.585-3.33l-.159-.37-.055-.179-.111-.184c.189-.2.347-.451.472-.757.093-.227-.016-.487-.244-.579-.224-.091-.487.016-.579.244-.153.373-.363.608-.624.699-.461.16-.99-.129-1.014-.143-.21-.122-.483-.05-.606.161-.124.212-.052.484.16.608.025.015.442.254.982.301.135.012.278.007.425-.012.052.189.147.412.263.68.575 1.349 1.787 3.134 4.295 3.984.688.233 1.327.362 1.916.414 3.096.274 4.796-1.583 4.936-1.743.181.083.375.138.586.156.238.021.494.001.768-.06.24-.053.391-.291.337-.53" fill="#9CB4C7" sketch:type="MSShapeGroup"/><path d="M300.373 175.214c8.638-24.556 24.452-57.244 47.759-58.769 37.532-2.455 59.871 95.58 59.871 95.58h-116.568s3.667-21.826 8.938-36.811" fill="#DBE9FB" sketch:type="MSShapeGroup"/><path d="M308.891 154.435c5.283-3.448 16.287-11.08 24.057-19.569-.135 13.665-.5 17.814-.5 17.814l15.845-19.22 11.37 19.997 1.613-19.458 27.658 22.38-.029-.315c-10.084-21.493-23.89-40.724-40.773-39.619-17.049 1.115-30.087 18.905-39.241 37.99" fill="#F9FBFF" sketch:type="MSShapeGroup"/><path d="M178.544 162.736c11.346-32.255 32.117-75.192 62.732-77.194 49.298-3.225 78.641 125.546 78.641 125.546h-153.114s4.817-28.669 11.741-48.352" fill="#DBE9FB" sketch:type="MSShapeGroup"/><path d="M189.731 135.442c6.94-4.528 21.395-14.553 31.601-25.703-.179 17.948-.658 23.399-.658 23.399l20.814-25.247 14.933 26.266 2.12-25.557 36.329 29.395-.038-.413c-13.245-28.231-31.38-53.491-53.556-52.04-22.394 1.465-39.521 24.832-51.545 49.9" fill="#F9FBFF" sketch:type="MSShapeGroup"/><path d="M91.64 181.704c13.044 0 23.617 10.401 23.617 23.445 0 2.038-.258 3.851-.743 5.851h75.499c1.78-4 2.78-8.089 2.78-12.623 0-16.788-13.61-30.21-30.398-30.21-2.158 0-4.261.243-6.29.671-6.172-14.126-20.249-24.002-36.65-24.002-18.182 0-33.494 12.15-38.346 28.764 2.325 2.525 4.25 5.426 5.644 8.616 1.576-.333 3.21-.512 4.887-.512" fill="#DBE9FB" sketch:type="MSShapeGroup"/><path d="M44.482 203.391c0-14.111 11.44-25.529 25.551-25.529 3.465 0 6.763.708 9.776 1.957.267-2.134.711-4.206 1.3-6.222-5.674-6.163-13.792-10.036-22.831-10.036-15.84 0-28.886 11.865-30.802 27.186-2.341-.97-4.904-1.511-7.596-1.511-10.962 0-19.851 8.844-19.851 19.808 0 .675.043.956.111 1.956h45.544c-.778-2-1.202-4.948-1.202-7.609" fill="#DBE9FB" sketch:type="MSShapeGroup"/><path d="M70.033 177.884c-14.111 0-25.551 11.396-25.551 25.507 0 2.661.424 5.609 1.202 7.609h68.83c.485-2 .743-3.813.743-5.851 0-13.044-10.573-23.467-23.617-23.467-1.677 0-3.311.192-4.887.524-1.394-3.19-3.319-6.084-5.644-8.609-.589 2.016-1.033 4.097-1.3 6.231-3.013-1.25-6.311-1.944-9.776-1.944" fill="#DBE9FB" sketch:type="MSShapeGroup"/><path d="M1071.31 206.729c0-13.206 10.705-23.759 23.912-23.759 1.696 0 3.351.194 4.947.53 1.411-3.23 3.361-6.16 5.715-8.716-4.914-16.822-20.416-29.118-38.824-29.118-16.606 0-30.858 10.007-37.107 24.309-2.054-.433-4.184-.668-6.368-.668-16.998 0-30.778 13.568-30.778 30.566 0 3.95.754 8.127 2.109 11.127h76.79c-.256-1-.396-2.795-.396-4.271" fill="#DBE9FB" sketch:type="MSShapeGroup"/><path d="M1117.097 179.124c14.288 0 25.87 11.538 25.87 25.825 0 2.097-.263 4.051-.749 6.051h45.739l.018-.327c0-11.1-9-20.077-20.1-20.077-2.725 0-5.32.559-7.69 1.542-1.94-15.512-15.148-27.518-31.186-27.518-9.152 0-17.37 3.927-23.115 10.166.596 2.041 1.046 4.146 1.316 6.307 3.05-1.265 6.39-1.969 9.897-1.969" fill="#DBE9FB" sketch:type="MSShapeGroup"/><path d="M1095.222 182.992c-13.207 0-23.912 10.531-23.912 23.737 0 1.476.14 3.271.396 4.271h70.512c.486-2 .749-3.954.749-6.051 0-14.287-11.582-25.847-25.87-25.847-3.507 0-6.847.717-9.897 1.981-.27-2.16-.72-4.258-1.316-6.299-2.354 2.556-4.304 5.494-5.715 8.724-1.596-.336-3.251-.516-4.947-.516" fill="#DBE9FB" sketch:type="MSShapeGroup"/></g></svg>