<svg width="43" height="43" viewBox="0 0 43 43" xmlns="http://www.w3.org/2000/svg" xmlns:sketch="http://www.bohemiancoding.com/sketch/ns"><title>Slice 1</title><desc>Created with Sketch.</desc><g sketch:type="MSShapeGroup" fill="none"><path d="M42.748 21.334c0 11.781-9.551 21.333-21.333 21.333-11.781 0-21.332-9.552-21.332-21.333 0-11.783 9.551-21.333 21.332-21.333 11.783 0 21.333 9.551 21.333 21.333" fill="#fff"/><path d="M10.579 12.032s3.865 5.123 10.583 5.477c0 0-.909-3.027 1.879-5.341 2.791-2.317 6.24-.355 6.901.519 0 0 1.963-.307 3.333-1.228 0 0-.448 1.769-2.104 2.833 0 0 1.939-.257 2.836-.777 0 0-.945 1.512-2.575 2.671 0 0 .684 6.393-4.811 11.676s-14.536 4.183-17.797 1.419c0 0 4.431.496 7.551-2.163 0 0-3.687-.072-4.749-3.511 0 0 1.843.143 2.163-.212 0 0-3.971-.957-4.007-5.107 0 .001 1.205.604 2.304.639 0 0-3.828-2.765-1.507-6.895" fill="#36A7DF"/></g></svg>