<?xml version="1.0" encoding="UTF-8" standalone="no"?>
<svg width="320px" height="157px" viewBox="0 0 320 157" version="1.1" xmlns="http://www.w3.org/2000/svg" xmlns:xlink="http://www.w3.org/1999/xlink" xmlns:sketch="http://www.bohemiancoding.com/sketch/ns">
    <!-- Generator: Sketch 3.3.3 (12072) - http://www.bohemiancoding.com/sketch -->
    <title>Slice 1</title>
    <desc>Created with Sketch.</desc>
    <defs>
        <rect id="path-1" x="0" y="0" width="320" height="188"></rect>
    </defs>
    <g id="Page-1" stroke="none" stroke-width="1" fill="none" fill-rule="evenodd" sketch:type="MSPage">
        <g id="Group" sketch:type="MSLayerGroup" transform="translate(0.000000, -31.000000)">
            <mask id="mask-2" sketch:name="Mask" fill="white">
                <use xlink:href="#path-1"></use>
            </mask>
            <use id="Mask" sketch:type="MSShapeGroup" xlink:href="#path-1"></use>
            <g mask="url(#mask-2)">
                <g transform="translate(-69.019608, 30.637037)">
                    <g id="Group" stroke-width="1" fill="none" sketch:type="MSLayerGroup" transform="translate(307.450980, 44.562963)">
                        <path d="M52.0240524,28.3119514 L52.0310241,28.3119514 L52.0386929,28.3119514 L52.0240524,28.3119514" id="Fill-2" fill="#FFFFFF" sketch:type="MSShapeGroup"></path>
                        <path d="M73.2786058,50.2773144 C72.6253596,38.0308551 63.3000437,28.3168255 52.0540306,28.3119514 C40.3060568,28.3168255 30.8141178,38.9137588 30.8141178,51.9275366 L30.8141178,65.619507 C36.0400873,67.4890625 43.6503705,68.6623218 52.1160785,68.6623218 C60.5308934,68.6623218 68.0603051,67.5022922 73.3113727,65.6529292 C73.3357735,65.1933736 73.2786058,64.7310329 73.2786058,64.2652107 L73.2786058,50.2773144" id="Fill-3" fill="#EBF3F9" sketch:type="MSShapeGroup"></path>
                        <path d="M52.0366014,25.110381 L52.0198694,25.110381 C52.0226581,25.110381 52.0254467,25.1110773 52.0282354,25.1110773 C52.0310241,25.1110773 52.0338127,25.110381 52.0366014,25.110381" id="Fill-6" fill="#FFFFFF" sketch:type="MSShapeGroup"></path>
                        <path d="M52.0372986,31.7572255 L52.0219609,31.7572255 L52.0303269,31.7572255 L52.0372986,31.7572255" id="Fill-7" fill="#FFFFFF" sketch:type="MSShapeGroup"></path>
                        <path d="M52.0240524,15.4896551 L52.0386929,15.4896551 C40.2872332,15.4896551 30.8141178,24.3451514 30.8141178,36.0819218 L30.8141178,48.4272551 C36.0400873,50.1129885 43.5806537,51.1706625 52.0463618,51.1706625 C60.5120698,51.1706625 68.0519391,50.1129885 73.2786058,48.4272551 L73.2786058,36.0819218 C73.2786058,24.3451514 63.7755121,15.4896551 52.0240524,15.4896551" id="Fill-9" fill="#C4D9ED" sketch:type="MSShapeGroup"></path>
                        <path d="M27.0675382,27.1491366 C27.0668411,27.1491366 24.265621,35.7783366 26.1333334,41.842381 C28.001743,46.3898922 37.3786493,45.5188255 37.7105012,42.1933144 C38.042353,38.8684996 38.3930284,33.3294625 39.7936385,30.4140699 C41.1949456,27.4993736 42.7126798,23.5346625 45.39817,20.6192699 C48.0829631,17.7038773 37.0684097,14.3769736 34.8904576,15.9373736 C32.7111112,17.4970773 30.2201308,18.9864551 27.0675382,27.1491366" id="Fill-10" fill="#EBF3F9" sketch:type="MSShapeGroup"></path>
                        <path d="M28.3642703,27.4562033 C28.3642703,27.4562033 26.7858825,32.317744 27.8379086,35.7344699 C28.8906319,38.2968403 34.1737692,37.8059514 34.3606101,35.9329144 C34.5481483,34.059181 34.7454467,30.938381 35.5346406,29.2958181 C36.3245317,27.6532551 37.1792594,25.4195366 38.6921134,23.7769736 C40.2056646,22.1344107 33.9994772,20.259981 32.7717648,21.138707 C31.5440524,22.0174329 30.1406537,22.8571662 28.3642703,27.4562033" id="Fill-11" fill="#9CB4C7" sketch:type="MSShapeGroup"></path>
                        <path d="M26.2797387,18.2337588 C25.312767,21.1212996 23.4596951,25.2510329 20.2373857,27.9791218 C21.0426145,28.5243218 22.0116777,29.1572551 23.1661875,29.8772255 C28.1362964,27.6922477 29.0983879,20.1673736 29.0983879,20.1673736 L26.2797387,18.2337588" id="Fill-12" fill="#9CB4C7" sketch:type="MSShapeGroup"></path>
                        <path d="M18.0496733,8.73070697 L7.48409597,23.0298477 C7.4833988,23.0298477 10.1333334,25.3909885 17.2841831,29.8486773 C18.3787365,29.3675366 19.35756,28.7234625 20.2373857,27.9791218 C23.4596951,25.2510329 25.312767,21.1212996 26.2797387,18.2337588 C26.9329849,16.2869144 27.1839652,14.9054625 27.1839652,14.9054625 L18.0496733,8.73070697" id="Fill-13" fill="#C4D9ED" sketch:type="MSShapeGroup"></path>
                        <path d="M14.8517648,3.90328475 C12.5469282,5.50964031 10.1416995,8.38604031 7.87869292,11.8494181 C5.61568638,15.3120996 3.94736394,18.6696403 3.40287592,21.4227959 L1.38736394,24.5073885 L3.95154695,26.1784996 C6.0995208,27.5787514 11.2732027,23.4601588 15.5803051,16.8697144 C19.8874075,10.2785736 21.5787365,3.89075142 19.4314598,2.49049957 L16.8672768,0.819388456 L14.8517648,3.90328475" id="Fill-14" fill="#9CB4C7" sketch:type="MSShapeGroup"></path>
                        <path d="M16.8498476,0.680129196 C18.9978215,2.08038105 17.2479304,8.55802549 12.9401308,15.1484699 C8.63302843,21.7396107 3.40078442,25.9473292 1.25350773,24.5477736 C-0.894466125,23.1475218 0.856122111,16.6698773 5.16252734,10.0787366 C9.46962974,3.48829216 14.7025709,-0.719426359 16.8498476,0.680129196" id="Fill-15" fill="#C4D9ED" sketch:type="MSShapeGroup"></path>
                        <path d="M14.4822659,3.61501809 C15.7239217,4.42481068 14.1580829,9.01758105 10.9852724,13.8742477 C7.81106764,18.7302181 4.23180839,22.0111662 2.98945544,21.2013736 C1.74779967,20.391581 3.31363845,15.7988107 6.48714608,10.942144 C9.6606537,6.08617364 13.2406101,2.80522549 14.4822659,3.61501809" id="Fill-16" fill="#FFFFFF" sketch:type="MSShapeGroup"></path>
                        <path d="M24.6678868,26.4514477 L33.6348585,32.005107 L35.9578215,28.5486922 L27.2801744,22.6635959 L24.6678868,26.4514477" id="Fill-17" fill="#9CB4C7" sketch:type="MSShapeGroup"></path>
                        <path d="M9.34623104,12.4948848 C8.08644891,14.5489588 6.54989117,15.8997736 5.91337701,15.510544 C5.27756002,15.1213144 5.78300664,13.1403514 7.04278878,11.085581 C8.30326808,9.03081068 9.83982581,7.68069216 10.47634,8.06992179 C11.112157,8.45845512 10.6067103,10.4401144 9.34623104,12.4948848" id="Fill-18" fill="#9CB4C7" sketch:type="MSShapeGroup"></path>
                    </g>
                    <path d="M352.609411,11.2404198 C352.000784,10.9089828 351.323834,11.4423457 350.939695,12.0383754 L348.873987,14.9419309 C349.623442,15.2072198 350.339433,15.5734717 350.989891,16.0650568 L353.016557,12.9247606 C353.400697,12.3294272 353.218039,11.5711606 352.609411,11.2404198" id="Fill-19" fill="#C4D9ED" sketch:type="MSShapeGroup"></path>
                    <path d="M354.887756,16.3400939 C354.264488,16.2154568 353.754161,16.7119161 353.337255,17.1979309 L354.367668,15.6006272 C354.752505,15.0052939 354.56915,14.2470272 353.96122,13.9162865 C353.352592,13.5848494 352.540392,13.8013976 352.155555,14.3967309 L351.048453,16.1117087 C352.338213,17.1074124 353.360958,18.6051457 353.863616,20.7949976 C354.11878,20.4162124 354.250544,20.1808643 354.250544,20.1808643 C354.639564,19.5876198 356.12732,16.5872791 354.887756,16.3400939" id="Fill-20" fill="#C4D9ED" sketch:type="MSShapeGroup"></path>
                    <path d="M355.42318,27.6005976 C354.122963,27.0881235 355.389716,24.4470717 355.289324,22.2258865 C354.980479,15.3812939 349.554422,13.8765976 345.430675,13.8800791 C347.018823,13.0076198 349.362701,11.5349531 347.862396,11.1652198 C345.693507,10.6304643 343.20183,13.9719902 343.20183,13.9719902 L343.220653,14.0242124 C343.183006,14.0290865 343.144662,14.0332643 343.108409,14.0388346 C343.086797,14.0416198 343.065185,14.0464939 343.043573,14.0499754 C344.301263,12.7653087 345.871285,10.9131606 344.410021,10.9737383 C342.178387,11.0663457 340.722004,14.9704791 340.722004,14.9711754 C338.332113,16.5608198 337.157385,19.5179902 337.157385,19.5179902 C332.69342,36.4205828 350.91878,33.634005 353.150414,32.9843606 C354.781786,32.5087902 363.658823,30.8481235 355.42318,27.6005976" id="Fill-21" fill="#EBF3F9" sketch:type="MSShapeGroup"></path>
                    <path d="M337.621699,19.0960346 L330.179433,19.0960346 L336.940566,23.7974272 C336.940566,23.7974272 339.231459,23.0113087 337.621699,19.0960346" id="Fill-22" fill="#9CB4C7" sketch:type="MSShapeGroup"></path>
                    <path d="M346.504313,39.9145976 C346.237995,39.9145976 345.934727,39.8581976 345.593812,39.7447013 C344.537603,39.3930717 343.751198,38.1320791 343.256209,35.9972346 C342.903442,34.4751309 342.830239,33.0693087 342.827451,33.0101235 C342.81769,32.8054124 342.97525,32.6313383 343.180915,32.6208939 C343.385882,32.6139309 343.560871,32.7685087 343.570631,32.9732198 C343.645926,34.4765235 344.198082,38.4969383 345.829455,39.0400494 C346.335599,39.2085531 346.701612,39.217605 346.859869,39.0651161 C347.084357,38.8506568 347.006971,38.2615902 346.935163,38.0095309 C346.878692,37.8124791 346.992331,37.6063754 347.189629,37.5499754 C347.386231,37.4935754 347.591895,37.6056791 347.64976,37.8020346 C347.685316,37.9252791 347.982309,39.017768 347.377167,39.5998717 C347.158954,39.8094568 346.866841,39.9145976 346.504313,39.9145976" id="Fill-23" fill="#9CB4C7" sketch:type="MSShapeGroup"></path>
                    <path d="M345.398605,39.3290124 C345.113464,39.3290124 344.799738,39.180005 344.4644,38.8826865 C344.311024,38.7469087 344.29708,38.5122568 344.433028,38.3583754 C344.569673,38.2051902 344.804618,38.190568 344.958692,38.327042 C345.24244,38.5791013 345.388845,38.5965087 345.421612,38.5811902 C345.579869,38.5080791 345.720697,37.9127457 345.711634,37.3557087 C345.708148,37.1503013 345.871982,36.9811013 346.077647,36.9776198 C346.284705,36.9769235 346.452026,37.1370717 346.455512,37.3424791 C346.460392,37.6042865 346.447146,38.9272494 345.732549,39.2559013 C345.625882,39.304642 345.514335,39.3290124 345.398605,39.3290124" id="Fill-24" fill="#9CB4C7" sketch:type="MSShapeGroup"></path>
                    <path d="M352.827625,39.9145976 C352.561307,39.9145976 352.258039,39.8581976 351.917124,39.7447013 C350.860217,39.3930717 350.074509,38.1320791 349.578823,35.9972346 C349.226753,34.4751309 349.153551,33.0693087 349.150762,33.0101235 C349.140305,32.8054124 349.298562,32.6313383 349.503529,32.6208939 C349.709194,32.6139309 349.883485,32.7685087 349.893943,32.9732198 C349.969237,34.4765235 350.521394,38.4969383 352.152069,39.0400494 C352.658213,39.2085531 353.024226,39.217605 353.18318,39.0651161 C353.407668,38.8506568 353.330283,38.2615902 353.258475,38.0095309 C353.202004,37.8124791 353.315642,37.6063754 353.512244,37.5499754 C353.708845,37.4935754 353.915207,37.6056791 353.972374,37.8020346 C354.00793,37.9252791 354.304923,39.017768 353.700479,39.5998717 C353.481568,39.8094568 353.189455,39.9145976 352.827625,39.9145976" id="Fill-25" fill="#9CB4C7" sketch:type="MSShapeGroup"></path>
                    <path d="M351.721917,39.3290124 C351.435381,39.3290124 351.12305,39.180005 350.787712,38.8826865 C350.633638,38.7469087 350.619695,38.5122568 350.756339,38.3583754 C350.892287,38.2051902 351.127233,38.190568 351.281307,38.327042 C351.565054,38.5791013 351.711459,38.5965087 351.744226,38.5811902 C351.90318,38.5080791 352.044008,37.9127457 352.034945,37.3557087 C352.031459,37.1503013 352.195294,36.9811013 352.400958,36.9776198 C352.60732,36.9769235 352.775337,37.1370717 352.778823,37.3424791 C352.783703,37.6042865 352.770457,38.9272494 352.05586,39.2559013 C351.949194,39.304642 351.837647,39.3290124 351.721917,39.3290124" id="Fill-26" fill="#9CB4C7" sketch:type="MSShapeGroup"></path>
                    <path d="M340.731067,20.4099457 C340.731067,20.4099457 342.340827,15.8958568 344.526448,16.8915606 C346.845228,17.9471457 344.929411,21.5859902 344.929411,21.5859902 C344.929411,21.5859902 345.52061,17.9283457 344.12976,17.5425976 C342.73891,17.1568494 340.731067,20.4099457 340.731067,20.4099457" id="Fill-27" fill="#9CB4C7" sketch:type="MSShapeGroup"></path>
                    <path d="M353.522701,31.8695902 C353.540827,31.8647161 353.561045,31.8591457 353.581263,31.8528791 C353.222222,31.4204791 352.668671,31.1531013 352.09281,31.2039309 C351.041481,31.295842 346.795032,31.1363902 343.995904,30.1880346 C341.196775,29.2396791 340.397124,25.4956939 338.82013,25.4956939 C337.568017,25.4956939 337.674684,26.9913383 337.772287,27.6096494 C341.048976,34.0650124 351.838344,32.3604791 353.522701,31.8695902" id="Fill-28" fill="#FFFFFF" sketch:type="MSShapeGroup"></path>
                    <path d="M362.389978,22.1625235 L363.966274,21.0978865 C364.553987,20.7009976 364.682963,19.9315902 364.253507,19.3884791 C363.824052,18.845368 362.991634,18.7263013 362.404618,19.1231902 L360.397472,20.4788791 C360.383529,20.4579902 360.369586,20.4377976 360.354945,20.417605 L363.774553,18.1065976 C364.362265,17.7097087 364.491939,16.9409976 364.062483,16.3978865 C363.633028,15.8547754 362.801307,16.0803754 362.213594,16.4772643 L356.807058,19.7839754 C355.102483,20.7358124 352.987973,21.590168 350.462832,22.0253531 C350.334553,22.0476346 350.204183,22.0685235 350.073115,22.0887161 C348.738736,22.0706124 346.692549,23.2981828 347.854727,25.0605087 C349.016906,26.8221383 351.256906,27.7092198 351.988235,27.8610124 C357.28183,28.9611606 362.057429,25.2638272 362.057429,25.2638272 C362.64793,24.8704198 365.196078,22.6951902 364.153115,21.9814865 C363.628845,21.6228939 362.964444,21.8791309 362.389978,22.1625235" id="Fill-29" fill="#C4D9ED" sketch:type="MSShapeGroup"></path>
                    <path d="M118.202277,49.1024482 L116.677571,49.0467445 C116.140055,46.3012482 114.998791,44.1100038 113.580055,42.3664779 L115.111035,40.5317371 C115.695959,39.8319594 115.600447,38.7812482 114.899096,38.197752 L109.922016,34.0540927 C109.221362,33.4699001 108.169336,33.5652927 107.585109,34.2657668 L105.497789,36.7661668 C104.083236,36.2181816 102.964281,35.9306112 102.48951,35.7906557 C101.869031,35.6089223 99.8089002,35.4654853 97.2286823,35.8359149 L96.4729525,34.2205075 C96.0867215,33.3940038 95.0939547,33.0340186 94.2671137,33.4197668 L88.396264,36.1583001 C87.5694231,36.5440482 87.2089873,37.5355742 87.5952183,38.3613816 L88.1278544,39.5012186 C85.7421464,41.3700779 83.7419721,44.0856334 82.8161333,48.0169223 C82.6864601,48.5669964 82.5888566,49.0996631 82.5058937,49.6239742 L79.7018849,50.0313075 C78.7983555,50.1629075 78.1674187,51.0082112 78.2984863,51.9106112 L79.232691,58.3144482 C79.3644558,59.216152 80.2108174,59.8469964 81.1136497,59.7153964 L83.675044,59.3428779 C85.9457194,64.3193075 90.1391834,66.5739149 90.1391834,66.5739149 C91.7405778,67.2980631 93.2638893,67.8752927 94.7153926,68.3244038 L94.5940854,70.1570557 C94.534129,71.0664186 95.2299024,71.8601964 96.1404035,71.9200779 L102.606634,72.3455149 C103.517135,72.4053964 104.31121,71.7104927 104.371166,70.8011297 L104.464586,69.3834705 C110.780229,68.5124038 114.618835,64.1751742 116.193737,58.8220482 L117.847419,58.8819297 C118.759314,58.9146557 119.532473,58.1967742 119.565937,57.2853223 L119.800186,50.8181223 C119.83365,49.9073668 119.114173,49.1351742 118.202277,49.1024482" id="Fill-30" fill="#EBF3F9" sketch:type="MSShapeGroup"></path>
                    <path d="M92.1972226,53.1597668 C92.568813,55.2145371 92.1763076,57.0047149 91.3208828,57.1592927 C90.4647608,57.3138705 89.4705995,55.7729668 89.0990091,53.7188927 C88.7274187,51.6641223 89.1206213,49.8739445 89.9760462,49.7193668 C90.831471,49.5654853 91.8263294,51.1056927 92.1972226,53.1597668" id="Fill-31" fill="#A2B9CA" sketch:type="MSShapeGroup"></path>
                    <path d="M111.694216,36.8211742 C113.29561,38.1629371 114.37134,39.5158408 114.096656,39.8431001 C113.821972,40.1696631 112.300752,39.3466408 110.700055,38.0048779 C109.098661,36.6631149 108.023628,35.3102112 108.298312,34.982952 C108.572996,34.656389 110.093519,35.4794112 111.694216,36.8211742" id="Fill-32" fill="#A2B9CA" sketch:type="MSShapeGroup"></path>
                    <path d="M109.372647,60.3650408 C108.415436,62.2213668 106.901188,63.3465816 105.98999,62.8779742 C105.078791,62.4100631 105.115044,60.525189 106.071558,58.6688631 C107.028072,56.8125371 108.541624,55.6873223 109.453519,56.1559297 C110.364717,56.6245371 110.328464,58.5087149 109.372647,60.3650408" id="Fill-33" fill="#A2B9CA" sketch:type="MSShapeGroup"></path>
                    <path d="M115.67853,58.7078557 C112.752517,64.1062408 107.863279,67.6455149 102.322887,67.6455149 C93.366373,67.6455149 86.1053708,58.400789 86.1053708,46.996152 C86.1053708,44.7512927 86.3905124,42.5920779 86.9105995,40.5686408 C85.0728653,42.3636927 83.579532,44.7763594 82.8161333,48.0169223 C82.6864601,48.5669964 82.5888566,49.0996631 82.5058937,49.6239742 L79.7018849,50.0313075 C78.7983555,50.1629075 78.1674187,51.0082112 78.2984863,51.9106112 L79.232691,58.3144482 C79.3644558,59.216152 80.2108174,59.8469964 81.1136497,59.7153964 L83.675044,59.3428779 C85.9457194,64.3193075 90.1391834,66.5739149 90.1391834,66.5739149 C91.7405778,67.2980631 93.2638893,67.8752927 94.7153926,68.3244038 L94.5940854,70.1570557 C94.534129,71.0664186 95.2299024,71.8601964 96.1404035,71.9200779 L102.606634,72.3455149 C103.517135,72.4053964 104.31121,71.7104927 104.371166,70.8011297 L104.464586,69.3834705 C110.712604,68.5214557 114.532386,64.266389 116.137963,58.9919445 C115.983192,58.8979445 115.829815,58.8032482 115.67853,58.7078557" id="Fill-34" fill="#C4D9ED" sketch:type="MSShapeGroup"></path>
                    <path d="M81.5361333,54.6797816 C81.9077237,56.7338557 81.8477673,58.4648482 81.4015799,58.5449223 C80.9567869,58.6256927 80.2944775,57.0249075 79.9228871,54.9708334 C79.5519939,52.9160631 79.6112531,51.1857668 80.0574405,51.1056927 C80.5029307,51.0249223 81.1645429,52.6250112 81.5361333,54.6797816" id="Fill-35" fill="#A2B9CA" sketch:type="MSShapeGroup"></path>
                    <path d="M145.021231,22.1570537 C144.920839,23.0873056 144.283628,23.3205648 143.605283,22.6750982 L140.881449,20.0841797 C140.203105,19.4380167 138.897309,19.0675871 137.979837,19.2597648 L134.299488,20.0312611 C133.382015,20.2234389 132.963018,19.690076 133.368072,18.8461648 L134.993867,15.4586834 C135.398922,14.6147723 135.348726,13.260476 134.88232,12.4485945 L133.009728,9.1906241 C132.543323,8.37874262 132.921885,7.81613522 133.850512,7.94007596 L137.578268,8.43723151 C138.507593,8.56117225 139.782015,8.09465373 140.410861,7.40114262 L142.934608,4.61526114 C143.563453,3.92175003 144.216699,4.10696484 144.385414,5.02746855 L145.063758,8.72271299 C145.232473,9.6432167 146.071166,10.7099426 146.925893,11.0929056 L150.35805,12.6289352 C151.212778,13.0118982 151.238573,13.6893945 150.413824,14.1343278 L147.105065,15.9203278 C146.280316,16.3659574 145.523889,17.4911723 145.423497,18.4214241 L145.021231,22.1570537" id="Fill-38" fill="#C4D9ED" sketch:type="MSShapeGroup"></path>
                    <path d="M161.127898,9.80823892 C161.077004,10.2845056 160.750033,10.4042685 160.402843,10.0735278 L159.008508,8.74638707 C158.661318,8.41634262 157.992734,8.22625373 157.522843,8.32443151 L155.638399,8.71992781 C155.168508,8.81810559 154.95378,8.54515744 155.160839,8.11275744 L155.993954,6.37828336 C156.201013,5.94657966 156.175218,5.25237225 155.936787,4.83668336 L154.977484,3.16835744 C154.739052,2.75266855 154.932865,2.46509818 155.408333,2.52846114 L157.317179,2.78330559 C157.792647,2.84666855 158.445196,2.60783892 158.767985,2.25203151 L160.059837,0.826016697 C160.381928,0.470905586 160.715872,0.565601882 160.80232,1.03699447 L161.150207,2.92883151 C161.236656,3.4002241 161.665414,3.9468167 162.103933,4.14247596 L163.860795,4.92929077 C164.299314,5.12564633 164.311166,5.47240188 163.890076,5.70009077 L162.195262,6.6150241 C161.773475,6.84271299 161.38585,7.41924633 161.334259,7.89551299 L161.127898,9.80823892" id="Fill-39" fill="#D3E3F0" sketch:type="MSShapeGroup"></path>
                    <path d="M168.496961,26.2805204 C168.44537,26.7567871 168.119096,26.8758537 167.771906,26.5458093 L166.376874,25.2186685 C166.029684,24.8879278 165.3611,24.6985352 164.891209,24.796713 L163.006765,25.1922093 C162.536874,25.2903871 162.322843,25.0174389 162.529902,24.5850389 L163.36232,22.8505648 C163.570076,22.4181648 163.543584,21.7246537 163.305153,21.3089648 L162.346547,19.6406389 C162.108116,19.22495 162.301231,18.9366834 162.777397,19.0007426 L164.686242,19.2548908 C165.16171,19.31895 165.814259,19.0801204 166.136351,18.724313 L167.428203,17.2982982 C167.750294,16.9431871 168.084935,17.0378834 168.171384,17.509276 L168.518573,19.401113 C168.605022,19.8725056 169.03378,20.4190982 169.472299,20.6147574 L171.229161,21.4015723 C171.66768,21.5979278 171.680229,21.9446834 171.258442,22.1723723 L169.563628,23.0873056 C169.141841,23.3149945 168.754216,23.8915278 168.703323,24.3677945 L168.496961,26.2805204" id="Fill-40" fill="#A2B9CA" sketch:type="MSShapeGroup"></path>
                    <g id="Group" stroke-width="1" fill="none" sketch:type="MSLayerGroup" transform="translate(235.979836, 69.323259)">
                        <path d="M93.7195644,63.1638222 C99.7416995,46.0655704 110.76671,23.305037 127.016296,22.2431852 C153.181002,20.5337778 168.75573,88.7951852 168.75573,88.7951852 L87.488279,88.7951852 C87.488279,88.7951852 90.0447931,73.5978222 93.7195644,63.1638222" id="Fill-44" fill="#DBE9FB" sketch:type="MSShapeGroup"></path>
                        <path d="M99.6573422,48.6954815 C103.341177,46.2946519 111.013508,40.9805185 116.430501,35.0696593 C116.335686,44.5845481 116.080523,47.4734815 116.080523,47.4734815 L127.127843,34.0906667 L135.054641,48.0145037 L136.179172,34.4659704 L155.462135,50.0490815 L155.44122,49.8297481 C148.41098,34.8642519 138.785882,21.4737778 127.016296,22.2431852 C115.129586,23.0195556 106.039216,35.4066667 99.6573422,48.6954815" id="Fill-45" fill="#F9FBFF" sketch:type="MSShapeGroup"></path>
                        <path d="M8.78361666,54.475437 C16.6943792,32.0164 31.1752507,2.11952593 52.5190415,0.725540741 C86.8880175,-1.52001481 107.345011,88.1427556 107.345011,88.1427556 L0.598170041,88.1427556 C0.598170041,88.1427556 3.95712429,68.180637 8.78361666,54.475437" id="Fill-46" fill="#DBE9FB" sketch:type="MSShapeGroup"></path>
                        <path d="M16.5835295,35.4707259 C21.4218737,32.3178963 31.4994337,25.3375259 38.6147278,17.5738222 C38.4899347,30.0709481 38.1559914,33.8664593 38.1559914,33.8664593 L52.6661439,16.2870667 L63.0776472,34.5759852 L64.5556428,16.7807407 L89.8830502,37.2483704 L89.8565578,36.9608 C80.6225709,17.3036593 67.9794337,-0.284785185 52.5190415,0.725540741 C36.9066668,1.74561481 24.9669718,18.0159704 16.5835295,35.4707259" id="Fill-47" fill="#F9FBFF" sketch:type="MSShapeGroup"></path>
                    </g>
                    <path d="M94.0388672,142.86677 C94.0388672,142.86677 83.5234859,139.239763 128.495686,133.57957 C171.342222,128.186756 189.43024,123.463778 247.539869,123.094044 C264.002092,122.988904 308.938736,127.887348 347.678257,136.27563 C366.317734,115.004474 402.863965,127.587941 402.863965,127.587941 C402.863965,127.587941 414.558954,132.980059 418.945534,137.473956 C421.869455,129.085674 455.857778,106.316785 507.388933,126.389615 C558.920087,146.461748 564.375425,153.6524 566.03329,156.648563 C567.691155,159.64403 141.00915,158.445704 141.00915,158.445704 L86.2675382,154.251215 L94.0388672,142.86677" id="Fill-48" fill="#DBE9FB" sketch:type="MSShapeGroup"></path>
                    <path d="M223.692549,125.918716 L223.605403,125.918716 C223.405316,125.918716 223.241482,125.755086 223.241482,125.555249 L223.241482,117.335471 C223.241482,117.135634 223.405316,116.972005 223.605403,116.972005 L223.692549,116.972005 C223.892636,116.972005 224.056471,117.135634 224.056471,117.335471 L224.056471,125.555249 C224.056471,125.755086 223.892636,125.918716 223.692549,125.918716" id="Fill-50" fill="#DBE9FB" sketch:type="MSShapeGroup"></path>
                    <path d="M197.83136,127.466379 L197.744214,127.466379 C197.544127,127.466379 197.380293,127.30275 197.380293,127.102913 L197.380293,118.883135 C197.380293,118.683298 197.544127,118.519668 197.744214,118.519668 L197.83136,118.519668 C198.031448,118.519668 198.195282,118.683298 198.195282,118.883135 L198.195282,127.102913 C198.195282,127.30275 198.031448,127.466379 197.83136,127.466379" id="Fill-50-Copy" fill="#DBE9FB" sketch:type="MSShapeGroup"></path>
                    <path d="M223.716253,108.438893 C223.79573,107.174419 223.141089,105.863293 222.024227,105.263782 C220.908061,104.664271 219.379869,104.881516 218.551634,105.841012 C217.744314,106.776834 217.703878,108.129738 217.705272,109.365664 C217.70597,110.756864 217.707364,112.14876 217.708061,113.540656 C216.999042,112.907723 215.839652,112.853412 215.075556,113.418108 C214.340044,113.960523 214.038867,115.027945 214.403486,115.86559 C214.767408,116.703234 215.772723,117.213619 216.659521,116.992893 C216.234946,117.064612 215.76366,117.164879 215.52244,117.521382 C215.20244,117.993471 215.494553,118.680716 215.979085,118.981516 C216.463617,119.283012 217.065272,119.303901 217.635556,119.316434 C220.811155,119.383279 223.986057,119.450819 227.160959,119.517664 C228.412375,119.544123 229.697952,119.565708 230.874771,119.138182 C232.050893,118.70996 233.111286,117.72679 233.250022,116.483901 C233.389455,115.241708 232.27817,113.90273 231.044183,114.112316 C232.061351,111.704523 231.090893,108.629679 228.875991,107.238479 C228.010109,106.694671 226.95878,106.394567 225.95207,106.571427 C224.944662,106.748982 224.008366,107.459901 223.716253,108.438893" id="Fill-51" fill="#DBE9FB" sketch:type="MSShapeGroup"></path>
                    <path d="M197.855064,109.986557 C197.934541,108.722083 197.279901,107.410957 196.163038,106.811446 C195.046872,106.211935 193.518681,106.429179 192.690445,107.388676 C191.883125,108.324498 191.842689,109.677402 191.844084,110.913328 C191.844781,112.304528 191.846175,113.696424 191.846872,115.08832 C191.137853,114.455387 189.978463,114.401076 189.214367,114.965772 C188.478855,115.508187 188.177679,116.575609 188.542297,117.413254 C188.906219,118.250898 189.911535,118.761283 190.798332,118.540557 C190.373757,118.612276 189.902472,118.712542 189.661251,119.069046 C189.341251,119.541135 189.633365,120.228379 190.117896,120.529179 C190.602428,120.830676 191.204084,120.851565 191.774367,120.864098 C194.949966,120.930942 198.124868,120.998483 201.29977,121.065328 C202.551186,121.091787 203.836763,121.113372 205.013583,120.685846 C206.189705,120.257624 207.250097,119.274454 207.388833,118.031565 C207.528267,116.789372 206.416981,115.450394 205.182994,115.659979 C206.200162,113.252187 205.229705,110.177342 203.014803,108.786142 C202.14892,108.242335 201.097591,107.942231 200.090881,108.119091 C199.083474,108.296646 198.147177,109.007565 197.855064,109.986557" id="Fill-51-Copy" fill="#DBE9FB" sketch:type="MSShapeGroup"></path>
                    <path d="M168.279564,104.486222 C168.372985,104.530785 168.470588,104.568385 168.571678,104.599719 C169.047146,104.747333 180.323835,108.107659 189.94475,99.1477185 C190.818998,98.3337481 190.867103,96.9662222 190.052113,96.0930667 C189.236427,95.2192148 187.86719,95.1718667 186.992941,95.985837 C179.188845,103.253778 169.947887,100.499926 169.855861,100.471378 C168.7139,100.117659 167.501525,100.75477 167.147364,101.894607 C166.823878,102.933481 167.324445,104.031541 168.279564,104.486222" id="Fill-54" fill="#EBF3F9" sketch:type="MSShapeGroup"></path>
                    <path d="M194.588584,96.5477481 L194.588584,96.5477481 C194.861874,97.1145333 195.549281,97.3547556 196.116079,97.0818074 L199.650719,95.3800593 C200.217516,95.1078074 200.458039,94.420563 200.185447,93.8544741 C199.912157,93.2883852 199.224052,93.048163 198.657255,93.3211111 L195.122614,95.022163 C194.55512,95.2951111 194.315294,95.9816593 194.588584,96.5477481" id="Fill-55" fill="#9CB4C7" sketch:type="MSShapeGroup"></path>
                    <path d="M189.010545,91.8317333 L189.010545,91.8317333 C188.450022,91.5455556 188.225534,90.853437 188.51207,90.2936148 L190.296819,86.8037778 C190.583355,86.2439556 191.275643,86.0197481 191.836863,86.3059259 C192.396689,86.5914074 192.621177,87.2835259 192.335338,87.8433481 L190.549891,91.3338815 C190.264052,91.8930074 189.571068,92.1172148 189.010545,91.8317333" id="Fill-56" fill="#9CB4C7" sketch:type="MSShapeGroup"></path>
                    <path d="M192.526362,93.6476741 L192.526362,93.6476741 C192.06414,93.2201481 192.036253,92.4939111 192.463617,92.0322667 L195.128889,89.156563 C195.55695,88.6949185 196.284096,88.6670667 196.746318,89.0938963 C197.207843,89.5207259 197.236427,90.2476593 196.808366,90.7093037 L194.143094,93.5850074 C193.71573,94.0466519 192.987887,94.0745037 192.526362,93.6476741" id="Fill-57" fill="#9CB4C7" sketch:type="MSShapeGroup"></path>
                    <path d="M189.132549,89.0333185 L187.692201,90.4830074 C185.564445,92.6248148 185.588845,96.1341481 187.733333,98.2599407 L187.747974,98.2738667 C189.892462,100.399659 193.362266,100.353704 195.490719,98.2118963 L196.931068,96.7622074 L189.132549,89.0333185" id="Fill-58" fill="#C4D9ED" sketch:type="MSShapeGroup"></path>
                    <path d="M175.831983,94.5619111 L177.356689,89.3369037 C179.586928,81.6943556 175.547538,73.4105185 167.895425,71.1830667 L167.843835,71.1677481 C160.191721,68.9409926 151.99024,73.6611852 149.759303,81.303037 L148.235294,86.5287407 L175.831983,94.5619111" id="Fill-59" fill="#C4D9ED" sketch:type="MSShapeGroup"></path>
                    <path d="M151.414379,80.6575704 L176.492201,87.958237 C176.917473,86.0427259 176.954423,84.0144148 176.496384,82.5222519 L154.366187,76.0801185 C153.160784,77.0883556 152.08854,78.8151704 151.414379,80.6575704" id="Fill-60" fill="#FFFFFF" sketch:type="MSShapeGroup"></path>
                    <path d="M153.531678,74.8351407 C153.325316,74.7404444 153.183094,74.3762815 152.958606,74.3108296 L150.778562,73.6765037 C148.294553,72.9530519 145.615338,74.5789037 144.891678,77.0598074 C144.16732,79.5407111 145.552593,82.3495704 148.036601,83.0730222 L149.149281,83.3968 L149.759303,81.303037 C150.466928,78.8799259 151.839652,76.5020741 153.531678,74.8351407" id="Fill-61" fill="#9CB4C7" sketch:type="MSShapeGroup"></path>
                    <path d="M177.686449,81.8663407 C177.910937,81.8969778 178.258126,81.6755556 178.481917,81.7410074 L180.661961,82.3753333 C183.14597,83.0980889 184.530545,85.9076444 183.807582,88.3878519 C183.083225,90.8687556 180.404009,92.4946074 177.92,91.7718519 L176.74597,91.4299704 L177.356689,89.3369037 C178.064314,86.9130963 178.216296,84.1801333 177.686449,81.8663407" id="Fill-62" fill="#9CB4C7" sketch:type="MSShapeGroup"></path>
                    <path d="M166.241743,93.7374963 L157.442789,91.1765185 L157.987277,89.3097481 L166.786231,91.8714222 L166.241743,93.7374963" id="Fill-63" fill="#9CB4C7" sketch:type="MSShapeGroup"></path>
                    <path d="M149.762092,99.0954963 C149.659608,99.082963 149.557124,99.0627704 149.454641,99.0349185 C148.974292,98.9040148 137.655076,95.6871259 134.360959,82.9678815 C134.061874,81.8120296 134.757647,80.6325037 135.914248,80.3337926 C137.071547,80.0343852 138.252549,80.7292889 138.552331,81.8851407 C141.223878,92.2028593 150.498998,94.8383407 150.592418,94.8641037 C151.745534,95.1781333 152.42597,96.3660148 152.111547,97.5176889 C151.825011,98.5670074 150.812026,99.2243111 149.762092,99.0954963" id="Fill-64" fill="#EBF3F9" sketch:type="MSShapeGroup"></path>
                    <path d="M172.151634,94.8501778 L151.781787,88.9205185 L140.643835,110.824607 L169.346928,119.180163 L172.151634,94.8501778" id="Fill-65" fill="#C4D9ED" sketch:type="MSShapeGroup"></path>
                    <path d="M146.906492,107.890415 L165.643573,113.344504 L166.193638,107.387689 L149.762092,102.60483 L146.906492,107.890415" id="Fill-66" fill="#FFFFFF" sketch:type="MSShapeGroup"></path>
                    <path d="M167.263094,98.1847407 L153.96671,94.3140296 L151.201046,99.6253778 L166.632157,104.117881 L167.263094,98.1847407" id="Fill-67" fill="#FFFFFF" sketch:type="MSShapeGroup"></path>
                    <path d="M131.843486,78.2832 L131.843486,78.2832 C131.308061,78.6139407 130.599042,78.4475259 130.267887,77.9134667 L128.201482,74.5816889 C127.870327,74.0476296 128.03695,73.3394963 128.572375,73.0080593 C129.107103,72.6773185 129.816122,72.8437333 130.147277,73.3784889 L132.213682,76.7095704 C132.544837,77.2443259 132.378214,77.9524593 131.843486,78.2832" id="Fill-68" fill="#9CB4C7" sketch:type="MSShapeGroup"></path>
                    <path d="M139.084967,77.298637 L139.084967,77.298637 C139.711721,77.3578222 140.272941,76.8947852 140.332898,76.2688148 L140.704488,72.3674667 C140.764445,71.7414963 140.300828,71.1809778 139.674074,71.1217926 C139.04732,71.0619111 138.4861,71.5249481 138.426144,72.1509185 L138.054553,76.0522667 C137.994597,76.678237 138.458214,77.2387556 139.084967,77.298637" id="Fill-69" fill="#9CB4C7" sketch:type="MSShapeGroup"></path>
                    <path d="M135.143181,76.9435259 L135.143181,76.9435259 C135.762266,76.8314222 136.177081,76.2333037 136.064837,75.6149926 L135.363486,71.7589037 C135.251242,71.1405926 134.653072,70.7262963 134.03329,70.8384 C133.414205,70.9505037 132.99939,71.5486222 133.111634,72.1669333 L133.812985,76.0230222 C133.925229,76.6413333 134.524096,77.0556296 135.143181,76.9435259" id="Fill-70" fill="#9CB4C7" sketch:type="MSShapeGroup"></path>
                    <path d="M140.487669,74.8727407 L140.922702,76.8683259 C141.564793,79.8171407 139.656645,82.7631704 136.70414,83.4051556 L136.683922,83.4093333 C133.732113,84.0513185 130.829804,82.1504296 130.187015,79.2023111 L129.75268,77.2067259 L140.487669,74.8727407" id="Fill-71" fill="#C4D9ED" sketch:type="MSShapeGroup"></path>
                    <path d="M147.764009,132.833837 L138.991547,130.279822 L144.478257,111.477037 L153.251416,114.031052 L147.764009,132.833837" id="Fill-72" fill="#E4EEF2" sketch:type="MSShapeGroup"></path>
                    <path d="M159.000959,136.104341 L150.228497,133.551022 L155.715207,114.748237 L164.488366,117.302252 L159.000959,136.104341" id="Fill-73" fill="#EBF3F9" sketch:type="MSShapeGroup"></path>
                    <path d="M148.975686,132.959867 L149.513203,131.118859 C150.337255,128.293985 148.292462,125.284593 145.46475,124.46157 L145.445229,124.456 C142.616819,123.632978 140.301525,125.373022 139.477473,128.1972 L138.940654,130.038207 L148.975686,132.959867" id="Fill-74" fill="#B2DFED" sketch:type="MSShapeGroup"></path>
                    <path d="M159.63817,136.063259 L160.174989,134.222252 C160.999739,131.398074 159.505011,128.54883 156.676601,127.725111 L156.657778,127.719541 C153.830065,126.896519 150.337255,128.293985 149.513203,131.118859 L148.975686,132.959867 L159.63817,136.063259" id="Fill-75" fill="#B2DFED" sketch:type="MSShapeGroup"></path>
                    <path d="M168.051591,87.3977185 C168.014641,87.2306074 167.849412,87.1233778 167.682092,87.1623704 C167.40671,87.2236444 167.189891,87.1964889 167.034423,87.0829926 C166.755556,86.8796741 166.713726,86.4500593 166.713726,86.4458815 C166.699085,86.2759852 166.5478,86.1478667 166.379782,86.1631852 C166.208976,86.1764148 166.081394,86.3261185 166.095338,86.4960148 C166.096732,86.5155111 166.126013,86.8163111 166.287756,87.1268593 C166.277299,87.1366074 166.264052,87.1414815 166.254292,87.1526222 C166.199216,87.2152889 164.865534,88.6886519 162.36061,87.8433481 C160.901438,87.3496741 160.196601,86.3108 159.861264,85.5246815 C159.812462,85.4118815 159.776209,85.3283259 159.750414,85.2670519 C159.744837,85.2245778 159.731591,85.1821037 159.71207,85.1424148 C159.687669,85.0922815 159.661177,85.0505037 159.634684,85.0142963 C159.766449,84.875037 159.876601,84.7002667 159.963747,84.4872 C160.028584,84.3291407 159.952593,84.1481037 159.793638,84.0840444 C159.637473,84.0206815 159.454118,84.0951852 159.389978,84.2539407 C159.283312,84.5136593 159.136906,84.6772889 158.954946,84.7406519 C158.633551,84.8520593 158.26475,84.6508296 158.248018,84.6410815 C158.101612,84.5561333 157.911286,84.6062667 157.825534,84.7531852 C157.739085,84.9008 157.789281,85.0901926 157.937081,85.1765333 C157.95451,85.1869778 158.245229,85.3533926 158.621699,85.3861185 C158.715817,85.3944741 158.815512,85.3909926 158.917996,85.377763 C158.954248,85.509363 159.020479,85.664637 159.101351,85.8512444 C159.502222,86.7905481 160.34719,88.033437 162.095686,88.6252889 C162.575338,88.7875259 163.020828,88.8773481 163.43146,88.9135556 C165.589891,89.1043407 166.775076,87.8113185 166.87268,87.6999111 C166.998867,87.7577037 167.134118,87.796 167.28122,87.8085333 C167.447146,87.8231556 167.625621,87.8092296 167.816645,87.7667556 C167.983965,87.7298519 168.089238,87.5641333 168.051591,87.3977185" id="Fill-76" fill="#9CB4C7" sketch:type="MSShapeGroup"></path>
                    <path d="M93.5689761,132.793452 C99.5911112,115.6952 110.616122,92.9346667 126.865011,91.8728148 C153.031111,90.1634074 168.605142,158.424815 168.605142,158.424815 L87.3376907,158.424815 C87.3376907,158.424815 89.8942049,143.227452 93.5689761,132.793452" id="Fill-77" fill="#DBE9FB" sketch:type="MSShapeGroup"></path>
                    <path d="M99.5074511,118.325111 C103.190588,115.924281 110.862222,110.610148 116.279216,104.699289 C116.185098,114.214178 115.930632,117.103111 115.930632,117.103111 L126.977255,103.720296 L134.904052,117.644133 L136.028584,104.0956 L155.31085,119.678711 L155.290632,119.459378 C148.260392,104.493881 138.635294,91.1034074 126.865011,91.8728148 C114.978998,92.6491852 105.889325,105.036296 99.5074511,118.325111" id="Fill-78" fill="#F9FBFF" sketch:type="MSShapeGroup"></path>
                    <path d="M8.6337256,124.105067 C16.543791,101.64603 31.0246624,71.7491556 52.3684533,70.3551704 C86.7374293,68.1096148 107.194423,157.772385 107.194423,157.772385 L0.448278973,157.772385 C0.448278973,157.772385 3.80653605,137.810267 8.6337256,124.105067" id="Fill-79" fill="#DBE9FB" sketch:type="MSShapeGroup"></path>
                    <path d="M16.4329413,105.100356 C21.2712855,101.947526 31.3488454,94.9671556 38.4641395,87.2034519 C38.3393465,99.7005778 38.0054032,103.496089 38.0054032,103.496089 L52.5162528,85.9166963 L62.9270589,104.205615 L64.4050546,86.4103704 L89.732462,106.878 L89.7059696,106.59043 C80.4719827,86.9332889 67.8288454,69.3448444 52.3684533,70.3551704 C36.7560785,71.3752444 24.8156864,87.6456 16.4329413,105.100356" id="Fill-80" fill="#F9FBFF" sketch:type="MSShapeGroup"></path>
                </g>
            </g>
        </g>
    </g>
</svg>