<?xml version="1.0" encoding="UTF-8" standalone="no"?>
<svg width="164px" height="192px" viewBox="0 0 164 192" version="1.1" xmlns="http://www.w3.org/2000/svg" xmlns:xlink="http://www.w3.org/1999/xlink" xmlns:sketch="http://www.bohemiancoding.com/sketch/ns">
    <!-- Generator: Sketch 3.3.3 (12072) - http://www.bohemiancoding.com/sketch -->
    <title>Slice 1</title>
    <desc>Created with Sketch.</desc>
    <defs></defs>
    <g id="Page-1" stroke="none" stroke-width="1" fill="none" fill-rule="evenodd" sketch:type="MSPage">
        <path d="M161.687726,74.9678243 C168.36941,125.235786 154.910062,184.767934 107.710183,190.28154 C60.5103052,195.795146 22.5864973,175.366094 9.73843872,157.517386 C-3.10961981,139.668678 -11.4412058,95.2614031 39.694342,64.1112838 C90.8298899,32.9611645 155.006041,24.6998622 161.687726,74.9678243 Z" id="Rectangle-9-Copy-42" fill="#8196DE" sketch:type="MSShapeGroup"></path>
        <path d="M130.94631,161.997375 L42,161.997375 L42,161.947401 C42,159.215086 44.4640907,157 47.5035529,157 L125.442757,157 C128.482219,157 130.94631,159.215086 130.94631,161.947401 L130.94631,161.997375" id="Fill-2-Copy" fill="#D6DEF9" sketch:type="MSShapeGroup"></path>
        <g id="Imported-Layers-Copy-5" sketch:type="MSLayerGroup" transform="translate(15.000000, 0.000000)">
            <g id="Imported-Layers" sketch:type="MSShapeGroup">
                <path d="M127.050563,67.5916132 C126.227568,67.5916132 125.425427,67.6810472 124.650844,67.8442642 C122.295813,62.4506509 116.924375,58.677283 110.666635,58.677283 C102.886542,58.677283 96.4798438,64.5068868 95.5391719,72.0372264 C94.3892135,71.5595 93.1305156,71.2941792 91.8085104,71.2941792 C86.4244115,71.2941792 82.0591875,75.6615377 82.0591875,81.049934 C82.0591875,85.8011132 85.5775833,89.8099906 90.0731458,90.6782453 C90.4231979,90.785566 126.939589,90.6782453 127.050563,90.6782453 C133.456516,90.6782453 138.649203,85.5454811 138.649203,79.1353019 C138.649203,72.7251226 133.456516,67.5916132 127.050563,67.5916132" id="Fill-1" fill="#FFFFFF"></path>
                <path d="M64.131776,88.8668019 C64.131776,88.8668019 53.482,74.0513208 49.6224896,49.8460189 M72.4391823,88.8668019 C72.4391823,88.8668019 61.4624427,66.1483396 59.8075156,41.6926226 M72.9597917,92.9993962 C72.9597917,92.9993962 68.5379635,65.5290094 71.7018385,41.2230943 M83.6132917,83.8070755 C83.6132917,83.8070755 91.1111094,74.0513208 94.9706198,49.8460189 M65.6898802,104.960443 C65.6898802,104.960443 81.6410833,66.1483396 83.2952656,41.6926226" id="Stroke-2" stroke="#0055A3" stroke-width="2" stroke-linecap="round" stroke-linejoin="round"></path>
                <path d="M37.898724,94.8752736 C37.2150052,94.8752736 36.5484167,94.9490566 35.9056615,95.0846981 C33.9498385,90.6048019 29.4885365,87.4716321 24.2906354,87.4716321 C17.8295677,87.4716321 12.5080313,92.3137358 11.7267448,98.5674057 C10.7711771,98.1709151 9.72623438,97.9503113 8.62841146,97.9503113 C4.1559375,97.9503113 0.530291667,101.577604 0.530291667,106.053028 C0.530291667,109.999302 3.45285417,113.328481 7.18723958,114.049915 C7.47770833,114.138604 37.8063698,114.049915 37.898724,114.049915 C43.2195156,114.049915 47.5326042,109.786896 47.5326042,104.462594 C47.5326042,99.1382925 43.2195156,94.8752736 37.898724,94.8752736" id="Fill-3" fill="#FFFFFF"></path>
                <path d="M31.8808073,105.461274 L112.590901,105.461274 L112.590901,157.38067 L31.8808073,157.38067 L31.8808073,105.461274 Z" id="Fill-4" fill="#FFFFFF"></path>
                <path d="M80.827026,141.498689 C80.827026,136.01266 76.626401,131.19217 71.1432448,131.19217 L71.5633073,131.19217 C66.0808958,131.19217 62.1349896,136.01266 62.1349896,141.498689 L62.1349896,157.517057 L80.827026,157.517057 L80.827026,141.498689" id="Fill-5" fill="#D6DEF9"></path>
                <path d="M78.0578906,142.170934 C78.0578906,137.955613 75.9106563,133.963132 71.1760156,133.963132 L71.539474,133.963132 C66.8048333,133.963132 64.904125,137.955613 64.904125,142.170934 L64.904125,157.517057 L78.0578906,157.517057 L78.0578906,142.170934" id="Fill-6" fill="#7688B7"></path>
                <path d="M100.904375,131.628906 C100.904375,129.466094 99.6300365,127.728094 97.200526,127.728094 L97.3859792,127.728094 C94.9564688,127.728094 93.9807917,129.466094 93.9807917,131.628906 L93.9807917,139.505057 L100.904375,139.505057 L100.904375,131.628906" id="Fill-7" fill="#7688B7"></path>
                <path d="M49.6731354,131.628906 C49.6731354,129.466094 48.3987969,127.728094 45.9692865,127.728094 L46.1554844,127.728094 C43.725974,127.728094 42.7502969,129.466094 42.7502969,131.628906 L42.7502969,139.505057 L49.6731354,139.505057 L49.6731354,131.628906" id="Fill-8" fill="#7688B7"></path>
                <path d="M74.2646667,106.327292 C74.2646667,105.325632 73.4528438,104.514019 72.4518438,104.514019 C71.4508438,104.514019 70.6397656,105.325632 70.6397656,106.327292 C70.6397656,107.328953 71.4508438,108.141311 72.4518438,108.141311 C73.4528438,108.141311 74.2646667,107.328953 74.2646667,106.327292" id="Fill-9" fill="#ED3024"></path>
                <path d="M112.590156,122.58117 L31.9634792,122.58117 L31.8808073,113.918745 L31.9634792,105.256321 L112.590156,105.256321 L112.590156,122.58117" id="Fill-10" fill="#0055A3"></path>
                <path d="M118.211844,103.735943 L101.085359,83.8070755 L43.9479219,83.8070755 L26.1347396,103.735943 L26.1347396,108.746481 L118.211844,108.746481 L118.211844,103.735943" id="Fill-11" fill="#FC3A7B"></path>
                <path d="M26.1347396,110.131962 L118.211844,110.131962 L118.211844,104.590038 L26.1347396,104.590038 L26.1347396,110.131962 Z" id="Fill-12" fill="#E3336E"></path>
                <path d="M50.479,141.037358 L41.9451771,141.037358 C41.509474,141.037358 41.1534635,140.681113 41.1534635,140.245868 L41.1534635,138.764991 C41.1534635,138.329 41.509474,137.972755 41.9451771,137.972755 L50.479,137.972755 C50.9132135,137.972755 51.2699687,138.329 51.2699687,138.764991 L51.2699687,140.245868 C51.2699687,140.681113 50.9132135,141.037358 50.479,141.037358" id="Fill-13" fill="#B2BDE3"></path>
                <path d="M101.70875,141.037358 L93.1756719,141.037358 C92.7407135,141.037358 92.3847031,140.681113 92.3847031,140.245868 L92.3847031,138.764991 C92.3847031,138.329 92.7407135,137.972755 93.1756719,137.972755 L101.70875,137.972755 C102.144453,137.972755 102.500464,138.329 102.500464,138.764991 L102.500464,140.245868 C102.500464,140.681113 102.144453,141.037358 101.70875,141.037358" id="Fill-14" fill="#B2BDE3"></path>
                <path d="M85.0984063,16.9768019 C85.0202031,26.1966981 79.0179271,33.6204623 71.6921563,33.5586038 C64.3663854,33.4967453 58.4899792,25.9716226 58.5681823,16.7517264 C58.6463854,7.53257547 64.6486615,0.108066038 71.9744323,0.170669811 C79.3009479,0.232528302 85.1766094,7.75765094 85.0984063,16.9768019" id="Fill-15" fill="#FC3A7B"></path>
                <path d="M65.7628698,19.4712642 C66.2737969,23.2200377 67.4304583,26.0364623 66.2544323,26.1966981 C65.0761719,26.3576792 63.1538646,24.5205566 62.6421927,20.7695472" id="Fill-16" fill="#FF2E63"></path>
                <path d="M76.4565885,40.6171792 C76.3783854,49.8370755 70.3761094,57.2608396 63.0495937,57.1982358 C55.7238229,57.1363774 49.8481615,49.612 49.9263646,40.3921038 C50.0045677,31.1722075 56.0068437,23.7484434 63.3326146,23.8103019 C70.6591302,23.8721604 76.5347917,31.397283 76.4565885,40.6171792" id="Fill-17" fill="#E3336E"></path>
                <path d="M55.7632969,36.2572736 C56.9400677,36.0955472 56.610125,39.3613774 57.1210521,43.1116415 C57.6312344,46.8604151 58.7886406,49.6760943 57.6126146,49.8363302 C56.4343542,49.9973113 54.5113021,48.1601887 54.000375,44.4099245 C53.4909375,40.6596604 54.5857812,36.4167642 55.7632969,36.2572736" id="Fill-18" fill="#FFFFFF"></path>
                <path d="M59.0597448,28.7552547 C59.6995208,29.116717 59.2861615,29.7673491 58.1362031,31.802717 C56.9855,33.841066 56.5222396,35.041717 55.8832083,34.681 C55.2426875,34.3210283 54.9641354,33.3134057 56.1140938,31.2758019 C57.2633073,29.240434 58.4199688,28.3945377 59.0597448,28.7552547" id="Fill-19" fill="#FFFFFF"></path>
                <path d="M94.8253854,40.6171792 C94.7471823,49.8370755 88.7449062,57.2608396 81.4183906,57.1982358 C74.091875,57.1363774 68.2169583,49.612 68.2944167,40.3921038 C68.3726198,31.1722075 74.3748958,23.7484434 81.7014115,23.8103019 C89.0279271,23.8721604 94.9028437,31.397283 94.8253854,40.6171792" id="Fill-20" fill="#E3336E"></path>
                <path d="M74.1320937,36.2572736 C75.3088646,36.0955472 74.9789219,39.3613774 75.4891042,43.1116415 C76.000776,46.8604151 77.1574375,49.6760943 75.9806667,49.8363302 C74.8024062,49.9973113 72.880099,48.1601887 72.3691719,44.4099245 C71.8589896,40.6596604 72.9545781,36.4167642 74.1320937,36.2572736" id="Fill-21" fill="#FFFFFF"></path>
                <path d="M77.4285417,28.7552547 C78.0690625,29.116717 77.6542135,29.7673491 76.505,31.802717 C75.3542969,33.841066 74.8902917,35.041717 74.2520052,34.681 C73.6114844,34.3210283 73.3321875,33.3134057 74.4828906,31.2758019 C75.6321042,29.240434 76.7887656,28.3945377 77.4285417,28.7552547" id="Fill-22" fill="#FFFFFF"></path>
                <path d="M67.8542448,23.6478302 C67.7805104,32.3780755 62.0970052,39.4075849 55.1600156,39.3487075 C48.223026,39.2898302 42.6594323,32.1649245 42.7331667,23.4346792 C42.8076458,14.704434 48.491151,7.67566981 55.4281406,7.73454717 C62.3651302,7.79267925 67.928724,14.9175849 67.8542448,23.6478302" id="Fill-23" fill="#D53067"></path>
                <path d="M49.545776,26.0096321 C50.0298906,29.5601604 51.1254792,32.2260377 50.0112708,32.3780755 C48.8955729,32.5301132 47.0753021,30.7906226 46.5911875,27.2393491" id="Fill-24" fill="#FFFFFF"></path>
                <path d="M101.417536,24.2723774 C101.343057,33.0026226 95.6595521,40.0321321 88.7225625,39.9732547 C81.7855729,39.9143774 76.2219792,32.7894717 76.2964583,24.0599717 C76.3701927,15.3297264 82.0536979,8.30021698 88.9906875,8.35909434 C95.9276771,8.4179717 101.491271,15.5428774 101.417536,24.2723774" id="Fill-25" fill="#D53067"></path>
                <path d="M83.1083229,26.6349245 C83.5924375,30.1847075 84.688026,32.8505849 83.5738177,33.0026226 C82.4581198,33.1546604 80.637849,31.4151698 80.1537344,27.8638962" id="Fill-26" fill="#FFFFFF"></path>
                <path d="M85.0984063,24.9245 C85.0202031,34.1443962 79.0179271,41.5681604 71.6921563,41.5063019 C64.3663854,41.4436981 58.4899792,33.9193208 58.5681823,24.6994245 C58.6463854,15.4795283 64.6486615,8.05576415 71.9744323,8.11836792 C79.3009479,8.18022642 85.1766094,15.7046038 85.0984063,24.9245" id="Fill-27" fill="#FC3A7B"></path>
                <path d="M86.4099844,36.7215849 C86.3235885,46.8693585 79.7172865,55.0398962 71.6541719,54.9720755 C63.5903125,54.9035094 57.1240312,46.6219245 57.2096823,36.4741509 C57.2960781,26.3263774 63.9023802,18.1558396 71.9654948,18.2236604 C80.0286094,18.2922264 86.4956354,26.5738113 86.4099844,36.7215849" id="Fill-28" fill="#D52F67"></path>
                <path d="M62.637724,34.4812642 C63.831625,34.177934 63.8696094,37.5816415 64.8303906,41.3878019 C65.7919167,45.193217 67.3105469,47.9611981 66.1166458,48.2630377 C64.9205104,48.5656226 62.7263542,46.8946981 61.7648281,43.0885377 C60.8047917,39.2823774 61.4423333,34.7816132 62.637724,34.4812642" id="Fill-29" fill="#EFB6D0"></path>
                <path d="M65.1655469,26.3658774 C65.8678854,26.6639906 65.515599,27.3824434 64.5674792,29.6138208 C63.617125,31.8489245 63.2782448,33.1397547 62.5788854,32.8423868 C61.8765469,32.5457642 61.4728698,31.5388868 62.4217344,29.3052736 C63.370599,27.0738962 64.4646979,26.0677642 65.1655469,26.3658774" id="Fill-30" fill="#EFB6D0"></path>
                <path d="M110.080953,40.5545755 C109.528318,49.8348396 103.10151,57.0014811 95.7265833,56.5617642 C88.352401,56.1213019 82.8223229,48.2414245 83.3757031,38.9604151 C83.9283385,29.6794057 90.3551458,22.5127642 97.7300729,22.9532264 C105.104255,23.3929434 110.634333,31.273566 110.080953,40.5545755" id="Fill-31" fill="#FC3A7B"></path>
                <path d="M89.4658646,35.0976132 C90.6597656,34.9955094 90.1592656,38.2665566 90.4810156,42.0697358 C90.8027656,45.8714245 91.8223854,48.7668491 90.629974,48.8674623 C89.4345833,48.9688208 87.5927135,47.0199057 87.2717083,43.2167264 C86.9507031,39.4142925 88.2727083,35.1974811 89.4658646,35.0976132" id="Fill-32" fill="#FFFFFF"></path>
                <path d="M93.1726927,27.7126038 C93.7983177,28.1098396 93.3477187,28.7433302 92.0852969,30.7339811 C90.8221302,32.7276132 90.2925833,33.9118679 89.6684479,33.5161226 C89.0420781,33.1211226 88.8134271,32.0911415 90.075849,30.099 C91.3382708,28.1083491 92.5470677,27.3161132 93.1726927,27.7126038" id="Fill-33" fill="#FFFFFF"></path>
                <path d="M34.6663281,40.3675094 C35.6539219,49.8795566 42.5827188,56.953783 50.1408646,56.1675094 C57.6997552,55.3812358 63.0265052,47.0325755 62.0381667,37.5205283 C61.0505729,28.0077358 54.121776,20.9342547 46.5636302,21.719783 C39.0047396,22.5060566 33.6779896,30.854717 34.6663281,40.3675094" id="Fill-34" fill="#FC3A7B"></path>
                <path d="M38.7157604,35.1058113 C39.9104062,34.8024811 39.9476458,38.206934 40.9084271,42.0130943 C41.8699531,45.8177642 43.3885833,48.5857453 42.1946823,48.8875849 C40.9992917,49.1901698 38.8043906,47.5199906 37.8428646,43.7130849 C36.8828281,39.9069245 37.5203698,35.4069057 38.7157604,35.1058113" id="Fill-35" fill="#FFFFFF"></path>
                <path d="M41.2443281,26.9904245 C41.9451771,27.2885377 41.5943802,28.0069906 40.6447708,30.2391132 C39.6951615,32.4734717 39.3562813,33.7643019 38.6561771,33.466934 C37.9545833,33.1703113 37.5501615,32.163434 38.499026,29.930566 C39.4486354,27.6984434 40.5427344,26.6923113 41.2443281,26.9904245" id="Fill-36" fill="#FFFFFF"></path>
            </g>
        </g>
    </g>
</svg>