<svg width="301" height="77" viewBox="0 0 301 77" xmlns="http://www.w3.org/2000/svg" xmlns:sketch="http://www.bohemiancoding.com/sketch/ns"><title>Slice 1</title><desc>Created with Sketch.</desc><g sketch:type="MSLayerGroup" fill="none"><path d="M18.252 76.012s18.48.441 37.66-7.137c7.844-3.1 5.666-5.021-2.094-3.792-4.562.722-30.27 7.329-35.12 8.885-4.852 1.555-.446 2.044-.446 2.044" fill="#EBF3F9" sketch:type="MSShapeGroup"/><path d="M48.488 69.149c-.235.117-.499.187-.778.199-1.071.046-1.976-.785-2.023-1.856-.197-4.586-4.276-5.403-4.74-5.481-1.052-.177-1.772-1.171-1.602-2.224.168-1.052 1.148-1.773 2.202-1.613 2.655.406 7.748 2.841 8.019 9.151.034.792-.411 1.493-1.078 1.824" fill="#9BB3C6" sketch:type="MSShapeGroup"/><path d="M35.704 72.032c-.235.116-.499.187-.777.199-1.072.046-1.978-.785-2.024-1.856-.197-4.586-4.275-5.403-4.74-5.482-1.051-.177-1.771-1.17-1.602-2.223.169-1.053 1.148-1.774 2.202-1.613 2.655.406 7.748 2.841 8.019 9.151.035.791-.41 1.493-1.078 1.824" fill="#9BB3C6" sketch:type="MSShapeGroup"/><path d="M38.331 16.434s10.053 8.42 24.625 12.634c5.959 1.724 5.737-.321.787-3.06-2.91-1.611-20.612-9.259-24.111-10.528-3.5-1.269-1.301.954-1.301.954" fill="#9BB3C6" sketch:type="MSShapeGroup"/><path d="M31.486 32.254l-4.444-2.137c-.992-.476-1.413-1.677-.935-2.668l2.473-5.144c.477-.992 1.678-1.413 2.67-.935l4.443 2.137c.991.476 1.411 1.677.936 2.668l-2.475 5.143c-.476.991-1.677 1.413-2.668.936" fill="#EBF3F9" sketch:type="MSShapeGroup"/><path d="M33.53 22.885c-.744-.358-1.06-1.259-.702-2.003l1.158-2.408c.358-.744 1.259-1.06 2.003-.703.744.358 1.06 1.26.702 2.003l-1.158 2.409c-.358.744-1.259 1.059-2.003.702" fill="#9BB3C6" sketch:type="MSShapeGroup"/><path d="M36.746 17.858l-1.722-.828c-.991-.477-1.412-1.678-.936-2.669l.726-1.509c.477-.991 1.678-1.412 2.669-.935l1.722.828c.991.477 1.412 1.678.936 2.669l-.726 1.509c-.476.991-1.678 1.412-2.669.935" fill="#EBF3F9" sketch:type="MSShapeGroup"/><path d="M36.405 15.352s-12.823-2.741-25.113-11.632c-5.027-3.636-3.278-4.719 1.927-2.504 3.06 1.302 19.984 10.547 23.138 12.524 3.154 1.976.048 1.612.048 1.612" fill="#9BB3C6" sketch:type="MSShapeGroup"/><path d="M35.875 31.149l-1.357-2.572 31.577 18.127s2.125 1.271 4.068 2.59c1.619 1.096 3.257 2.956-.592 5.11-1.744.976-3.867 1.649-5.098 2.139-2.616 1.04-30.691 11.258-38.804 10.158-8.113-1.1 10.206-35.552 10.206-35.552" fill="#EBF3F9" sketch:type="MSShapeGroup"/><path d="M42.802 38.578c4.233 10.635-.776 22.614-11.187 26.758-10.409 4.143-22.28-1.119-26.511-11.754-4.234-10.635.775-22.614 11.186-26.756 10.41-4.143 22.28 1.119 26.512 11.752" fill="#C4D9ED" sketch:type="MSShapeGroup"/><path d="M22.605 44.789c-1.018 8.569-6.778 14.931-12.865 14.208-6.087-.723-10.197-8.257-9.18-16.826 1.018-8.57 6.778-14.931 12.865-14.208 6.088.723 10.198 8.256 9.18 16.826" fill="#9BB3C6" sketch:type="MSShapeGroup"/><path d="M18.814 44.338c-.769 6.47-5.179 11.264-9.851 10.709-4.672-.555-7.836-6.249-7.067-12.718.767-6.469 5.178-11.263 9.849-10.709 4.672.555 7.837 6.249 7.069 12.718" fill="#fff" sketch:type="MSShapeGroup"/><path d="M76.66 34.843c-2.087-1.572-5.386-2.424-10.89 3.662-1.665 1.84-3.46 4.055-4.534 5.409l4.858 2.79s2.126 1.271 4.069 2.59c1.179.8 2.368 2.005 1.436 3.433 9.282-10.21 7.15-16.312 5.061-17.884zm-3.714 9.004c-1.503 1.492-3.578 1.837-4.636.771-1.057-1.066-.695-3.139.808-4.63 1.504-1.491 3.58-1.836 4.637-.771 1.057 1.066.695 3.139-.809 4.63z" fill="#9BB3C6" sketch:type="MSShapeGroup"/><path d="M9.897 43.332c-.244 2.453-1.63 4.325-3.097 4.18-1.467-.146-2.459-2.253-2.217-4.706.244-2.454 1.63-4.325 3.097-4.18 1.467.145 2.459 2.252 2.217 4.706" fill="#9BB3C6" sketch:type="MSShapeGroup"/><path d="M33.387 32.478c-.147 0-.274.03-.376.091-1.038.621 1.301 3.006 3.28 6.309 1.798 3.007 2.682 5.739 3.608 5.739.091 0 .184-.027.277-.083 1.04-.622 1.399-3.305-.58-6.61-1.783-2.978-4.861-5.446-6.209-5.446" fill="#DAE7F4" sketch:type="MSShapeGroup"/><path d="M26.828 28.178c-.652 0-1.072.189-1.208.53-.279.693.464.947 2.671 1.833 1.567.628 2.591 1.142 3.155 1.142.232 0 .385-.087.467-.29.28-.693-.138-1.672-2.348-2.558-1.126-.452-2.058-.657-2.737-.657" fill="#DAE7F4" sketch:type="MSShapeGroup"/><path d="M23.466 57.179c-.42-.026-.784.296-.812.718-.009.156-.301 3.833-4.942 5.421-1.725.578-3.241.498-4.473.166 1.034.665 2.123 1.233 3.252 1.702.503-.074 1.023-.19 1.562-.365l.155-.052c5.652-1.934 5.967-6.588 5.979-6.785.022-.422-.299-.78-.721-.805" fill="#9BB3C6" sketch:type="MSShapeGroup"/><path d="M24.369 57.956c-.204.066-.414.101-.629.105-1.168.023-2.026-.911-2.062-.951-.213-.235-.195-.599.041-.812.234-.208.596-.195.811.039.018.021.561.59 1.193.574.359-.01.708-.217 1.043-.617.203-.244.566-.277.81-.072.244.203.276.566.073.81-.388.465-.817.774-1.28.924" fill="#9BB3C6" sketch:type="MSShapeGroup"/><path d="M299.883 44.08h-227.82c-.614 0-1.117-.502-1.117-1.116 0-.614.503-1.117 1.117-1.117h227.82c.615 0 1.117.503 1.117 1.117s-.502 1.116-1.117 1.116" fill="#E6F0FC" sketch:type="MSShapeGroup"/></g></svg>