<svg width="44" height="43" viewBox="0 0 44 43" xmlns="http://www.w3.org/2000/svg" xmlns:sketch="http://www.bohemiancoding.com/sketch/ns"><title>Slice 1</title><desc>Created with Sketch.</desc><g sketch:type="MSShapeGroup" fill="none"><path d="M43.437 21.333c0 11.781-9.552 21.333-21.333 21.333-11.781 0-21.333-9.552-21.333-21.333 0-11.783 9.552-21.333 21.333-21.333 11.781 0 21.333 9.551 21.333 21.333" fill="#fff"/><path d="M15.697 18.426h3.4v-3.15s-.143-2.059 1.419-3.622c1.563-1.563 3.666-1.413 6.661-1.154v3.517h-2.215s-.929-.019-1.367.484c-.437.502-.391 1.218-.391 1.395v2.53h3.841l-.492 3.917h-3.368v10.088h-4.075v-10.107h-3.414v-3.898" fill="#4D67A4"/></g></svg>