<?xml version="1.0" encoding="UTF-8" standalone="no"?>
<svg width="178px" height="155px" viewBox="0 0 178 155" version="1.1" xmlns="http://www.w3.org/2000/svg" xmlns:xlink="http://www.w3.org/1999/xlink" xmlns:sketch="http://www.bohemiancoding.com/sketch/ns">
    <!-- Generator: Sketch 3.3.3 (12072) - http://www.bohemiancoding.com/sketch -->
    <title>Slice 1</title>
    <desc>Created with Sketch.</desc>
    <defs></defs>
    <g id="Page-1" stroke="none" stroke-width="1" fill="none" fill-rule="evenodd" sketch:type="MSPage">
        <g id="Group-Copy-18" sketch:type="MSLayerGroup">
            <path d="M163.745166,36.6068604 C170.487521,87.5676276 156.90596,147.920262 109.277504,153.509858 C61.6490482,159.099454 23.3808896,138.388843 10.4161699,120.29414 C-2.54854984,102.199436 -10.9557872,57.1801301 40.6440747,25.6006924 C92.2439365,-5.97874527 157.002812,-14.3539069 163.745166,36.6068604 Z" id="Rectangle-9-Copy-41" fill="#FFBCD3" sketch:type="MSShapeGroup"></path>
            <g id="Imported-Layers" transform="translate(30.712985, 3.068965)" sketch:type="MSShapeGroup">
                <path d="M110.600759,100.669382 C110.600759,91.0646406 103.558229,83.37418 94.8697687,83.37418 C93.7521615,83.37418 92.6644997,83.506459 91.6142698,83.7516589 C88.4197313,75.6697387 81.1344295,70.0161586 72.6470316,70.0161586 C65.7253532,70.0161586 59.620758,73.7887968 55.8679507,79.5595997 C52.1130043,73.7834196 45.990228,70.0161586 39.0632022,70.0161586 C29.3950977,70.0161586 21.3076855,77.3592526 19.0361087,87.2672673 C18.4596587,88.0017918 18.7056392,89.2987706 18.253249,90.1257828 C16.9880534,89.6794759 14.8843851,88.9202163 13.4855045,88.9202163 C6.18309105,88.9202163 0.262446528,95.4653349 0.262446528,103.537576 C0.262446528,108.267355 2.37467069,112.495979 5.57562608,115.189952 C7.97126259,118.291517 11.6577622,120.357434 15.8822105,120.55639 C16.8618547,120.602634 17.8233178,120.541334 18.7548353,120.389697 C21.2584894,126.979984 27.4465041,131.799024 34.9018532,132.150693 C39.7380445,132.378685 44.2074038,130.674115 47.6051436,127.728489 C50.036073,128.781344 51.553666,130.146075 54.3535661,130.278354 C56.4914578,130.379445 60.4635087,129.472851 61.5661432,127.759677 C64.552133,130.392351 68.5327398,133.300336 72.8085231,133.502519 C82.0755724,133.940222 90.0346469,127.320898 91.576838,118.360345 C92.9201056,118.995929 94.4045446,119.385238 95.9798895,119.459443 C101.656692,119.727227 106.566678,115.851347 107.830804,110.485984 C109.575127,107.702749 110.600759,104.326948 110.600759,100.669382" id="Fill-1" fill="#FFFFFF"></path>
                <path d="M25.5694091,100.79001 C25.5694091,100.79001 15.8150485,35.5055716 55.4316026,35.7919068 C95.0481566,36.0782421 83.373449,100.79001 83.373449,100.79001 L25.5694091,100.79001" id="Fill-3" fill="#FC3A7B"></path>
                <path d="M43.486953,28.7434782 C44.9630916,44.6373755 43.8764896,57.7354954 41.0574748,58.0012145 C38.23846,58.2657883 34.7565497,45.5960259 33.2804111,29.703274 C31.8031334,13.8093767 32.8908745,0.711256773 35.7087502,0.445537656 C38.527765,0.180963881 42.0096753,12.8507262 43.486953,28.7434782" id="Fill-4" fill="#FC3A7B"></path>
                <path d="M40.7476679,38.4502433 C40.7681699,35.5937628 40.6121274,32.0752752 40.2590387,28.2670163 C39.3888459,18.9095802 37.6701011,11.41905 36.4206227,11.5358747 C35.1700052,11.6538449 34.8613373,19.3345017 35.7315302,28.6930832 C36.1540976,33.2458137 37.4525529,40.3560908 37.4525529,40.3560908 C37.4525529,40.3560908 39.3022822,38.6735848 40.7476679,38.4502433" id="Fill-5" fill="#FFFFFF"></path>
                <path d="M64.0332993,28.7434782 C62.5560217,44.6373755 63.6437627,57.7354954 66.4616385,58.0012145 C69.2806533,58.2657883 72.7625636,45.5960259 74.2398412,29.703274 C75.7159799,13.8093767 74.6293778,0.711256773 71.8103631,0.445537656 C68.9913483,0.180963881 65.509438,12.8507262 64.0332993,28.7434782" id="Fill-6" fill="#FC3A7B"></path>
                <path d="M66.9217928,37.4137097 C66.9012909,34.5572292 67.0573333,31.0387416 67.411561,27.2304827 C68.2817539,17.8730466 69.9993596,10.381371 71.2499771,10.4993411 C72.4994556,10.6161659 72.8081234,18.2979681 71.9379306,27.6554042 C71.5153631,32.2092801 70.2180468,39.3195572 70.2180468,39.3195572 C70.2180468,39.3195572 68.3671786,37.6370512 66.9217928,37.4137097" id="Fill-7" fill="#FFFFFF"></path>
                <path d="M60.3588987,51.1600926 C60.4363504,47.6141168 63.7827202,44.8114674 67.8329895,44.900804 C71.8843978,44.9912859 75.1054781,47.9393937 75.0268874,51.4853695 C74.9494357,55.0324906 71.6030658,57.8351401 67.5516575,57.7458035 C63.5013883,57.6553215 60.280308,54.7072138 60.3588987,51.1600926" id="Fill-8" fill="#FFFFFF"></path>
                <path d="M69.5278154,57.5476595 C69.5460393,57.1593889 69.5676802,56.7734089 69.5767922,56.3702489 C69.6872748,51.3296031 68.9400935,47.2247009 67.9081632,47.2017941 C66.875094,47.1788872 65.9479514,51.2471385 65.8374688,56.2877844 C65.8283568,56.7104152 65.8329128,57.1158659 65.8363298,57.522462 C66.3864648,57.6507402 66.9582407,57.7320594 67.5516575,57.7458035 C68.2350551,57.7606929 68.8968116,57.6873911 69.5278154,57.5476595" id="Fill-9" fill="#691934"></path>
                <path d="M34.1619939,51.1600926 C34.2394456,47.6141168 37.5858154,44.8114674 41.6372237,44.900804 C45.687493,44.9912859 48.9085733,47.9393937 48.8299826,51.4853695 C48.7525308,55.0324906 45.405022,57.8351401 41.3547527,57.7458035 C37.3044834,57.6553215 34.0834031,54.7072138 34.1619939,51.1600926" id="Fill-10" fill="#FFFFFF"></path>
                <path d="M43.3297715,57.5476595 C43.3491345,57.1593889 43.3719144,56.7734089 43.3798874,56.3702489 C43.49037,51.3296031 42.7431887,47.2247009 41.7112584,47.2017941 C40.6781892,47.1788872 39.7510466,51.2471385 39.640564,56.2877844 C39.631452,56.7104152 39.636008,57.1158659 39.639425,57.522462 C40.18956,57.6507402 40.7624749,57.7320594 41.3547527,57.7458035 C42.0381502,57.7606929 42.6987678,57.6873911 43.3297715,57.5476595" id="Fill-11" fill="#691934"></path>
                <path d="M59.2142078,58.2325734 C59.2210418,57.7446581 56.8644594,57.3094285 54.6320275,57.3449341 C54.6354445,57.3575329 54.6343055,57.3689863 54.6388615,57.3804397 C52.6160048,57.3792943 50.5885922,58.0435921 50.5851752,58.4868391 C50.5760632,59.4088386 53.3301552,60.551889 54.8996915,60.4797325 C56.4692278,60.407576 59.2016789,59.1545729 59.2142078,58.2325734" id="Fill-12" fill="#691934"></path>
                <path d="M23.0066684,100.022631 L23.0066684,62.993756 L55.7268022,72.0378969 C55.7268022,72.0378969 57.2927762,97.2463142 57.0423904,109.820349 C57.0331553,110.284125 54.9479393,111.151329 54.9479393,111.151329 L23.0066684,100.022631 Z" id="Fill-13" fill="#EAEFFF"></path>
                <path d="M54.8985525,111.141602 L86.7904366,100.022631 L86.7904366,62.993756 L54.8985525,71.8690036 L54.8985525,111.141602" id="Fill-14" fill="#D6DEF9"></path>
                <path d="M57.6036677,21.1647567 C56.3621622,21.1315418 55.1571046,23.0167731 54.4315642,24.4163798 C53.8005605,22.9686688 52.6718156,20.8921655 51.3893063,20.8566599 C49.4233994,20.8005382 49.4609863,31.4762619 49.9200016,31.0879913 C51.1307542,30.0640564 57.3542276,30.3790252 58.5011964,31.4636631 C58.9362928,31.8771312 59.5695745,21.2208784 57.6036677,21.1647567" id="Fill-15" fill="#691833"></path>
                <path d="M49.4837662,29.5807225 C51.0134376,29.8865285 54.203765,30.2793805 59.1367561,29.5452169 C59.2119298,28.9015353 59.2597677,28.1135406 59.2506557,27.3118019 C54.2504639,28.0688723 51.0259666,27.6691483 49.4837662,27.3610516 C49.3835346,28.4353815 49.4666812,29.757105 49.4837662,29.5807225" id="Fill-16" fill="#FC3A7B"></path>
                <path d="M46.1294234,29.1764171 C46.1294234,29.1775624 50.7002138,30.3469556 54.4247302,30.448891 C58.1458297,30.549681 61.2905973,28.6014559 62.2257129,29.3081313 C63.1574115,30.0148067 61.6197671,31.9458517 59.2700186,32.7097941 C55.8313901,33.827647 50.1944996,33.3259876 48.2445387,32.8025668 C45.2649255,32.0031187 43.7136132,29.0836445 46.1294234,29.1764171" id="Fill-17" fill="#691833"></path>
                <path d="M59.454536,88.0022772 L59.454536,77.3299895 L82.2344532,70.0376033 L82.2344532,80.5312177 L59.454536,88.0022772" id="Fill-18" fill="#B2BDE3"></path>
                <path d="M59.454536,92.2709631 L59.454536,90.1371928 L82.2344532,82.8436612 L82.2344532,84.801049 L59.454536,92.2709631" id="Fill-19" fill="#B2BDE3"></path>
                <path d="M59.454536,96.5407945 L59.454536,94.4058788 L82.2344532,87.1134925 L82.2344532,89.069735 L59.454536,96.5407945" id="Fill-20" fill="#B2BDE3"></path>
                <path d="M59.454536,100.80948 L59.454536,98.6745648 L82.2344532,91.3821785 L82.2344532,93.338421 L59.454536,100.80948" id="Fill-21" fill="#B2BDE3"></path>
                <path d="M91.5935822,76.5110707 C91.5890262,75.7757618 91.2347985,74.758699 90.5855708,74.1447962 C90.5810149,74.1402148 90.5798759,74.1367788 90.5764589,74.1321974 C90.5730419,74.1287614 90.5696249,74.1276161 90.5673469,74.1253254 C90.555957,74.113872 90.543428,74.1058546 90.530899,74.0955465 C89.448853,72.9376067 86.7904366,73.3018252 86.7904366,73.3018252 L86.7904366,74.7987859 L86.8405525,74.8927039 C86.2505526,76.7756445 83.381422,77.4720118 83.7105918,78.4913653 C84.219723,80.0707906 86.2926954,78.4123368 86.5239116,79.2427091 C87.0649346,81.1863528 83.6206111,79.9837447 83.7128698,81.7842208 C83.8085455,83.6809055 86.6309772,81.9308244 86.7904366,82.8436612 C87.0353207,84.2398319 84.0819045,83.6717428 84.477136,84.7735608 C84.8712286,85.8742335 87.6572125,85.989913 89.6367873,84.3967436 C92.2587558,82.2847348 91.5935822,76.5110707 91.5935822,76.5110707" id="Fill-22" fill="#FC3A7B"></path>
                <path d="M20.9587538,73.2663196 C21.9815721,73.1792737 23.0066684,73.3018252 23.0066684,73.3018252 L23.0066684,74.8766691 C23.5966682,76.7596097 26.0363974,77.4720118 25.7072276,78.4913653 C25.1980964,80.0707906 23.380259,78.5016734 23.1490429,79.333191 C22.6080198,81.2756894 25.7015326,79.9837447 25.6104129,81.7842208 C25.5147373,83.6809055 23.1672668,82.016725 23.0066684,82.9295618 C22.7617843,84.3257325 25.2163204,83.6717428 24.8222278,84.7735608 C24.4269962,85.8742335 21.6387344,85.9887677 19.6580206,84.3967436 C16.9164575,82.1919622 17.051998,79.2117848 17.6966697,77.0241835 C18.1978279,75.3222067 19.269623,73.4094872 20.9587538,73.2663196" id="Fill-23" fill="#FC3A7B"></path>
                <path d="M50.3425691,92.2709631 L50.3425691,90.1371928 L27.5626518,82.8436612 L27.5626518,84.801049 L50.3425691,92.2709631" id="Fill-24" fill="#C1CCED"></path>
                <path d="M50.3425691,79.6722119 L50.3425691,77.5384416 L27.5626518,70.24491 L27.5626518,72.2022978 L50.3425691,79.6722119" id="Fill-25" fill="#C1CCED"></path>
                <path d="M50.3425691,84.2547213 L50.3425691,82.1198057 L27.5626518,74.8262741 L27.5626518,76.7836619 L50.3425691,84.2547213" id="Fill-26" fill="#C1CCED"></path>
                <path d="M50.3425691,96.5407945 L50.3425691,94.4058788 L27.5626518,87.1134925 L27.5626518,89.069735 L50.3425691,96.5407945" id="Fill-27" fill="#C1CCED"></path>
                <path d="M50.3425691,100.80948 L50.3425691,98.6745648 L27.5626518,91.3821785 L27.5626518,93.338421 L50.3425691,100.80948" id="Fill-28" fill="#C1CCED"></path>
                <path d="M45.0906591,93.1425677 C44.1806015,88.8223413 40.9823011,91.8082454 40.8923204,92.6191468 C40.8046177,93.4197402 41.0495018,90.2196574 38.3979195,90.1532276 C35.7451981,90.2196574 36.1552366,93.4197402 36.0675339,92.6191468 C35.9786923,91.8082454 32.8623996,88.8223413 31.9512029,93.1425677 C31.4192918,95.672626 31.6618979,98.853238 32.205199,100.961811 C34.0663182,108.177459 38.7464522,108.232436 38.7464522,108.232436 C38.7464522,108.232436 43.0176867,108.177459 44.8776669,100.961811 C45.4221069,98.853238 45.6237092,95.672626 45.0906591,93.1425677" id="Fill-29" fill="#FC3A7B"></path>
                <path d="M79.260535,93.1425677 C78.3504773,88.8223413 75.1521769,91.8082454 75.0621962,92.6191468 C74.9744936,93.4197402 75.2193777,90.2196574 72.5677953,90.1532276 C69.9150739,90.2196574 70.3262515,93.4197402 70.2374098,92.6191468 C70.1485681,91.8082454 67.0311364,88.8223413 66.1222177,93.1425677 C65.5891677,95.672626 65.8317738,98.853238 66.3750748,100.961811 C68.236194,108.177459 72.916328,108.232436 72.916328,108.232436 C72.916328,108.232436 77.1875625,108.177459 79.0486818,100.961811 C79.5919828,98.853238 79.7935851,95.672626 79.260535,93.1425677" id="Fill-30" fill="#FC3A7B"></path>
            </g>
            <g id="Imported-Layers-Copy-12" transform="translate(31.975868, 46.788754) rotate(25.000000) translate(-31.975868, -46.788754) translate(12.589999, 29.672190)" sketch:type="MSShapeGroup">
                <path d="M11.7512279,23.0684846 L15.3864288,26.6656725 L19.2132718,24.3731567 L15.4824263,21.2296585 L11.7512279,23.0684846" id="Fill-1" fill="#2E4597"></path>
                <path d="M0.144349238,29.7563659 L3.77919716,33.3535537 L7.60604016,31.0606788 L3.8751947,27.9175398 L0.144349238,29.7563659" id="Fill-2" fill="#FC3A7B"></path>
                <path d="M35.3768571,20.0259261 L30.3549859,19.3175524 L28.6047956,23.4715249 L33.4399656,23.7560238 L35.3768571,20.0259261" id="Fill-3" fill="#2E4597"></path>
                <path d="M33.6220786,12.60273 L38.3104289,10.6378191 L37.7637371,6.15229039 L33.4470243,8.38697238 L33.6220786,12.60273" id="Fill-4" fill="#2E4597"></path>
                <path d="M15.4287806,1.60713185 L18.7992824,5.46115903 L22.7778862,3.45493834 L19.279976,0.0463388486 L15.4287806,1.60713185" id="Fill-5" fill="#FC3A7B"></path>
                <path d="M9.82845373,13.7019306 L5.00740095,12.1027015 L2.56511066,15.8777011 L7.27498983,17.0261143 L9.82845373,13.7019306" id="Fill-6" fill="#2E4597"></path>
            </g>
            <g id="Imported-Layers-Copy-13" transform="translate(153.290891, 48.469714) scale(-1, 1) rotate(25.000000) translate(-153.290891, -48.469714) translate(134.790891, 29.969714)" sketch:type="MSShapeGroup">
                <path d="M9.85992359,23.0684846 L13.4951244,26.6656725 L17.3219674,24.3731567 L13.591122,21.2296585 L9.85992359,23.0684846" id="Fill-1" fill="#2E4597"></path>
                <path d="M33.4855528,20.0259261 L28.4636816,19.3175524 L26.7134912,23.4715249 L31.5486613,23.7560238 L33.4855528,20.0259261" id="Fill-3" fill="#2E4597"></path>
                <path d="M31.7307743,12.60273 L36.4191246,10.6378191 L35.8724327,6.15229039 L31.5557199,8.38697238 L31.7307743,12.60273" id="Fill-4" fill="#2E4597"></path>
                <path d="M13.5374763,1.60713185 L16.9079781,5.46115903 L20.8865819,3.45493834 L17.3886716,0.0463388486 L13.5374763,1.60713185" id="Fill-5" fill="#FC3A7B"></path>
                <path d="M8.84345717,32.3556448 L12.2139589,36.2096719 L16.1925627,34.2034513 L12.6946525,30.7948518 L8.84345717,32.3556448" id="Fill-5-Copy" fill="#FC3A7B"></path>
                <path d="M7.93714939,13.7019306 L3.1160966,12.1027015 L0.673806315,15.8777011 L5.38368548,17.0261143 L7.93714939,13.7019306" id="Fill-6" fill="#2E4597"></path>
            </g>
        </g>
    </g>
</svg>