<svg width="44" height="43" viewBox="0 0 44 43" xmlns="http://www.w3.org/2000/svg" xmlns:sketch="http://www.bohemiancoding.com/sketch/ns"><title>Slice 1</title><desc>Created with Sketch.</desc><g sketch:type="MSShapeGroup" fill="none"><path d="M43.333 21.333c0 11.783-9.552 21.333-21.333 21.333-11.781 0-21.333-9.551-21.333-21.333 0-11.781 9.552-21.333 21.333-21.333 11.781 0 21.333 9.552 21.333 21.333" fill="#fff"/><path d="M34.887 15.94c-.404-1.524-.897-2.465-1.479-3.003-.584-.539-1.795-.673-11.12-.673s-10.536.135-11.117.673c-.584.537-1.079 1.479-1.479 3.003-.407 1.525-.449 5.38-.449 5.38 0 5.067.895 7.577 2.061 8.429 1.167.852 10.984.627 10.984.627s9.819.225 10.984-.627c1.167-.852 2.061-3.363 2.061-8.429 0 0-.044-3.855-.447-5.38zm-15.241 10.177v-9.595l7.349 4.797-7.349 4.797z" fill="#CC181E"/></g></svg>